<svg width="40" height="40" viewBox="0 0 40 40" fill="none" xmlns="http://www.w3.org/2000/svg">
<path d="M5.92219 32.4852L14.3284 9.34453C14.4004 9.14652 14.5212 8.9699 14.6797 8.8311C14.8382 8.6923 15.0293 8.59581 15.235 8.5506C15.4408 8.50539 15.6547 8.51293 15.8568 8.57251C16.0589 8.6321 16.2426 8.74179 16.3909 8.89141L31.1097 23.6102C31.2593 23.7585 31.369 23.9422 31.4286 24.1443C31.4882 24.3464 31.4957 24.5603 31.4505 24.7661C31.4053 24.9718 31.3088 25.1629 31.17 25.3214C31.0312 25.4799 30.8546 25.6007 30.6566 25.6727L7.51594 34.0789C7.29331 34.164 7.0508 34.1828 6.81771 34.1331C6.58461 34.0834 6.37089 33.9673 6.20236 33.7987C6.03383 33.6302 5.91769 33.4165 5.86798 33.1834C5.81826 32.9503 5.83709 32.7078 5.92219 32.4852V32.4852Z" stroke="#092853" stroke-opacity="0.6" stroke-width="2" stroke-linecap="round" stroke-linejoin="round"/>
<path d="M26.25 11.25C26.25 11.25 26.25 7.5 30 7.5C33.75 7.5 33.75 3.75 33.75 3.75" stroke="#092853" stroke-opacity="0.6" stroke-width="2" stroke-linecap="round" stroke-linejoin="round"/>
<path d="M16 31L9 24" stroke="#092853" stroke-opacity="0.6" stroke-width="2" stroke-linecap="round" stroke-linejoin="round"/>
<path d="M22.5 2.5V6.25" stroke="#092853" stroke-opacity="0.6" stroke-width="2" stroke-linecap="round" stroke-linejoin="round"/>
<path d="M33.75 17.5L36.25 20" stroke="#092853" stroke-opacity="0.6" stroke-width="2" stroke-linecap="round" stroke-linejoin="round"/>
<path d="M33.75 12.5L37.5 11.25" stroke="#092853" stroke-opacity="0.6" stroke-width="2" stroke-linecap="round" stroke-linejoin="round"/>
<path d="M12 15.75L24.25 28" stroke="#092853" stroke-opacity="0.6" stroke-width="2" stroke-linecap="round" stroke-linejoin="round"/>
</svg>
