<svg width="40" height="40" viewBox="0 0 40 40" fill="none" xmlns="http://www.w3.org/2000/svg">
<path d="M20 20L35 5" stroke="#092853" stroke-opacity="0.6" stroke-width="2" stroke-linecap="round" stroke-linejoin="round"/>
<path d="M30.6095 9.39118C27.9503 6.72392 24.3865 5.15221 20.6237 4.98711C16.8609 4.82202 13.1733 6.07559 10.2906 8.4997C7.40797 10.9238 5.54043 14.3418 5.05764 18.0772C4.57484 21.8125 5.51198 25.593 7.68355 28.6704C9.85513 31.7477 13.1029 33.8977 16.784 34.6948C20.4651 35.4918 24.3114 34.8778 27.5614 32.9743C30.8114 31.0708 33.2284 28.0166 34.334 24.4161C35.4396 20.8156 35.1531 16.9312 33.5314 13.5318" stroke="#092853" stroke-opacity="0.6" stroke-width="2" stroke-linecap="round" stroke-linejoin="round"/>
<path d="M25.2965 14.7023C24.0578 13.4671 22.4256 12.7047 20.6833 12.5478C18.941 12.3908 17.1988 12.8491 15.7592 13.8431C14.3197 14.837 13.2738 16.3038 12.8032 17.9886C12.3326 19.6735 12.4671 21.47 13.1833 23.066C13.8995 24.662 15.1521 25.9568 16.7235 26.7253C18.295 27.4939 20.086 27.6877 21.7855 27.2731C23.485 26.8585 24.9856 25.8617 26.0266 24.4558C27.0676 23.0499 27.5833 21.3238 27.484 19.5773" stroke="#092853" stroke-opacity="0.6" stroke-width="2" stroke-linecap="round" stroke-linejoin="round"/>
</svg>
