<svg width="21" height="21" viewBox="0 0 21 21" fill="none" xmlns="http://www.w3.org/2000/svg">
<path d="M2.91788 0.92562L2.90395 0.935724L2.89267 0.94872C2.77515 1.08412 2.65709 1.21833 2.53961 1.35188C2.06553 1.89079 1.60097 2.41888 1.22051 2.97022C0.743238 3.66186 0.389248 4.40188 0.301983 5.27116L0.301139 5.27957L0.301245 5.28802C0.321572 6.91292 1.01248 8.54689 2.06682 10.1449C3.12182 11.744 4.5492 13.3197 6.06076 14.8301C7.55418 16.3224 9.18338 17.8257 10.8093 18.9379C12.4242 20.0424 14.0949 20.8564 15.791 20.6038H15.7998L15.8118 20.6036L15.8235 20.6016C17.3895 20.3352 18.6897 19.2462 20.0041 18.0005L20.0099 17.9949L20.0152 17.9888C20.8092 17.0547 20.7829 15.6438 20.018 14.8526L20.0181 14.8526L20.0162 14.8508L17.4895 12.326L17.4843 12.3208L17.4786 12.3161C16.5734 11.5728 15.3635 11.5161 14.4243 12.0006L14.4142 12.0058L14.4051 12.0124C14.0119 12.2968 13.6107 12.5886 13.2103 12.8797C13.0253 13.0142 12.8405 13.1487 12.6567 13.2822C12.4195 13.2022 12.1274 13.0366 11.9129 12.887C11.2712 12.4279 10.5068 11.6745 9.87183 11.04C9.76503 10.9333 9.6555 10.8249 9.545 10.7155C8.97626 10.1525 8.38202 9.56419 8.0028 9.0536L7.99802 9.04717L7.99259 9.04129C7.7972 8.82963 7.66839 8.49173 7.62915 8.2598C7.76548 8.0725 7.90479 7.88275 8.0447 7.69219C8.33758 7.29329 8.63307 6.89083 8.90931 6.4998L8.91657 6.48952L8.92202 6.47817C9.42737 5.4256 9.31923 4.19628 8.6056 3.45807L8.60561 3.45806L8.60397 3.45641L6.09583 0.941127L6.09622 0.940735L6.08634 0.932401C5.05994 0.0663351 3.84569 0.252639 2.91788 0.92562ZM5.90625 7.06965L5.90089 7.07689L5.89645 7.08472C5.22385 8.26911 5.66161 9.40275 6.32572 10.3037L6.32604 10.3041C6.8381 10.9936 7.48922 11.6323 8.0423 12.1748C8.16439 12.2946 8.2817 12.4096 8.39169 12.5196L8.49772 12.4134L8.39169 12.5196C8.41018 12.538 8.42884 12.5567 8.44765 12.5755C9.07261 13.2002 9.87246 13.9997 10.7041 14.5944L10.7043 14.5945C11.1558 14.9166 11.701 15.1868 12.2485 15.2946C12.7963 15.4023 13.3596 15.3492 13.8251 15.0043C14.2564 14.706 14.7105 14.372 15.1143 14.0749C15.225 13.9935 15.332 13.9148 15.4336 13.8404C15.5521 13.7934 15.6477 13.7754 15.7391 13.776C15.8277 13.7766 15.9202 13.7947 16.0348 13.8307L18.5193 16.3133C18.5279 16.3358 18.5333 16.3747 18.5304 16.43C18.5289 16.4596 18.5253 16.4885 18.5216 16.5139C18.5212 16.5166 18.5207 16.5197 18.5202 16.5231C17.9194 17.0898 17.355 17.5576 16.8436 17.9016C16.3251 18.2504 15.8713 18.465 15.496 18.5335H15.489L15.4782 18.5351C15.0917 18.5917 14.5805 18.512 13.9783 18.289C13.3786 18.067 12.7006 17.7071 11.9856 17.2181C10.5478 16.2346 8.99502 14.8038 7.54082 13.3508C6.10868 11.9197 4.83871 10.4156 3.91849 9.01504C3.00062 7.61799 2.4439 6.3435 2.40136 5.35531C2.48494 4.98375 2.70216 4.54013 3.04198 4.03857C3.38153 3.53742 3.83764 2.98687 4.3884 2.40372C4.45592 2.38084 4.50785 2.3983 4.63974 2.44442L7.10545 4.90821C7.18045 5.07506 7.14403 5.23806 7.07399 5.48935L5.90625 7.06965Z" fill="#092853" stroke="#092853" stroke-width="0.3"/>
</svg>
