<svg width="19" height="20" viewBox="0 0 19 20" fill="none" xmlns="http://www.w3.org/2000/svg">
<path fill-rule="evenodd" clip-rule="evenodd" d="M6.3331 19.0762C5.09046 19.0762 4.0831 18.0688 4.0831 16.8262C4.0831 15.5835 5.09046 14.5762 6.3331 14.5762C7.57574 14.5762 8.5831 15.5835 8.5831 16.8262C8.5831 18.0688 7.57574 19.0762 6.3331 19.0762ZM6.3331 17.5762C6.74731 17.5762 7.0831 17.2404 7.0831 16.8262C7.0831 16.412 6.74731 16.0762 6.3331 16.0762C5.91889 16.0762 5.5831 16.412 5.5831 16.8262C5.5831 17.2404 5.91889 17.5762 6.3331 17.5762Z" fill="#092853"/>
<path fill-rule="evenodd" clip-rule="evenodd" d="M15.3331 19.0762C14.0905 19.0762 13.0831 18.0688 13.0831 16.8262C13.0831 15.5835 14.0905 14.5762 15.3331 14.5762C16.5757 14.5762 17.5831 15.5835 17.5831 16.8262C17.5831 18.0688 16.5757 19.0762 15.3331 19.0762ZM15.3331 17.5762C15.7473 17.5762 16.0831 17.2404 16.0831 16.8262C16.0831 16.412 15.7473 16.0762 15.3331 16.0762C14.9189 16.0762 14.5831 16.412 14.5831 16.8262C14.5831 17.2404 14.9189 17.5762 15.3331 17.5762Z" fill="#092853"/>
<path fill-rule="evenodd" clip-rule="evenodd" d="M5.43366 6.32617L6.13924 11.6737C6.18849 12.0494 6.51029 12.3294 6.8956 12.3262L14.8375 12.3263C15.2007 12.3333 15.5167 12.0789 15.5877 11.7214L16.668 6.32617H5.43366ZM5.23575 4.82617H17.5831C18.0565 4.82617 18.4114 5.25929 18.3185 5.72343L17.0587 12.0148C16.8464 13.0838 15.8984 13.8469 14.8231 13.8262L6.90196 13.8261C5.76513 13.8358 4.79971 12.9959 4.65204 11.8693L3.51196 3.22867C3.46307 2.85577 3.14556 2.57674 2.7706 2.57617H1.0831C0.668886 2.57617 0.333099 2.24039 0.333099 1.82617C0.333099 1.41196 0.668886 1.07617 1.0831 1.07617H2.77173C3.90001 1.07788 4.85256 1.91497 4.99915 3.03306L5.23575 4.82617Z" fill="#092853"/>
<path fill-rule="evenodd" clip-rule="evenodd" d="M1.08311 1.22578C0.751735 1.22578 0.483105 1.49441 0.483105 1.82578C0.483105 2.15715 0.751735 2.42578 1.08311 2.42578H2.77061C3.22088 2.42646 3.60198 2.76138 3.66068 3.20866M3.66068 3.20866L4.80076 11.8493C4.93858 12.9007 5.83962 13.6848 6.90069 13.6758L6.90197 13.6757L14.826 13.6758C15.8281 13.6951 16.7133 12.9835 16.9116 11.9852L18.1714 5.69359C18.2458 5.32227 17.9618 4.97578 17.5831 4.97578H5.10424L4.85045 3.05229C4.71364 2.00884 3.82466 1.22743 2.77163 1.22578H1.08311M0.183105 1.82578C0.183105 1.32872 0.586049 0.925781 1.08311 0.925781H2.77174C3.97517 0.927605 4.99144 1.82041 5.14787 3.01305M5.14787 3.01305L5.36726 4.67578H17.5831C18.1511 4.67578 18.5771 5.19552 18.4656 5.75249L17.2059 12.0436C16.9796 13.1828 15.9696 13.9972 14.8217 13.9758L6.90255 13.9758C5.69025 13.9857 4.66082 13.0899 4.50332 11.8884L3.36326 3.2479C3.32413 2.94947 3.07002 2.72627 2.77045 2.72578H1.08311C0.586049 2.72578 0.183105 2.32284 0.183105 1.82578M5.26258 6.17578H16.8511H14.0102M5.26258 6.17578L5.28496 6.3454L5.26258 6.17578ZM5.28496 6.3454L5.99052 11.6928L5.28496 6.3454ZM5.99052 11.6928C6.04972 12.1443 6.43626 12.4794 6.89628 12.4758L5.99052 11.6928ZM14.8361 12.4759H14.8375L14.8375 12.3259L14.8346 12.4759L14.8361 12.4759Z" fill="#092853"/>
</svg>
