<svg width="40" height="40" viewBox="0 0 40 40" fill="none" xmlns="http://www.w3.org/2000/svg">
<g opacity="0.5">
<path d="M32.5 0H5.83333C2.61667 0 0 2.61667 0 5.83333V22.5C0 25.7167 2.61667 28.3333 5.83333 28.3333H9.485L5.08833 37.1267C4.915 37.4733 5.00333 37.8917 5.3 38.1383C5.45333 38.2683 5.64333 38.3333 5.83333 38.3333C6.00833 38.3333 6.185 38.2783 6.33333 38.1667L19.445 28.3333H19.6583C20.0267 28.3333 20.3517 28.0917 20.4567 27.7383C21.8183 23.1817 26.085 20 30.8333 20C33.0533 20 35.1933 20.6767 37.0217 21.955C37.275 22.1333 37.61 22.1567 37.885 22.0117C38.16 21.8683 38.3333 21.5833 38.3333 21.2733V5.83333C38.3333 2.61667 35.7167 0 32.5 0ZM10.8333 16.6667C9.455 16.6667 8.33333 15.545 8.33333 14.1667C8.33333 12.7883 9.455 11.6667 10.8333 11.6667C12.2117 11.6667 13.3333 12.7883 13.3333 14.1667C13.3333 15.545 12.2117 16.6667 10.8333 16.6667ZM19.1667 16.6667C17.7883 16.6667 16.6667 15.545 16.6667 14.1667C16.6667 12.7883 17.7883 11.6667 19.1667 11.6667C20.545 11.6667 21.6667 12.7883 21.6667 14.1667C21.6667 15.545 20.545 16.6667 19.1667 16.6667ZM27.5 16.6667C26.1217 16.6667 25 15.545 25 14.1667C25 12.7883 26.1217 11.6667 27.5 11.6667C28.8783 11.6667 30 12.7883 30 14.1667C30 15.545 28.8783 16.6667 27.5 16.6667Z" fill="white"/>
<path d="M30.8337 21.6666C25.7787 21.6666 21.667 25.7783 21.667 30.8333C21.667 35.8883 25.7787 40 30.8337 40C35.8887 40 40.0003 35.8883 40.0003 30.8333C40.0003 25.7783 35.8887 21.6666 30.8337 21.6666ZM31.4337 36.4166C31.267 36.5833 31.0503 36.6666 30.8337 36.6666C30.617 36.6666 30.417 36.5833 30.2503 36.4333C30.0837 36.2666 30.0003 36.0666 30.0003 35.8333C30.0003 35.6166 30.0837 35.4 30.2503 35.25C30.567 34.9333 31.1003 34.9333 31.417 35.2333C31.5837 35.4 31.667 35.6166 31.667 35.8333C31.667 36.05 31.5837 36.25 31.4337 36.4166ZM31.6687 31.5133L31.667 32.5C31.667 32.96 31.2937 33.3333 30.8337 33.3333C30.3737 33.3333 30.0003 32.9583 30.0003 32.5L30.002 30.8333C30.002 30.4383 30.2803 30.0983 30.667 30.0183L30.8487 29.9833C32.5437 29.67 33.3337 29.145 33.3337 28.3333C33.3337 27.43 32.187 26.6666 30.832 26.6666C29.527 26.6666 28.4037 27.3733 28.332 28.2433C28.2937 28.7016 27.8953 29.055 27.432 29.0033C26.9737 28.965 26.6337 28.5616 26.672 28.1033C26.8187 26.335 28.6087 25 30.832 25C33.1303 25 35.0003 26.495 35.0003 28.3333C35.0003 29.925 33.8803 30.9933 31.6687 31.5133Z" fill="white"/>
</g>
</svg>
