<svg width="24" height="24" viewBox="0 0 24 24" fill="none" xmlns="http://www.w3.org/2000/svg">
<path d="M3.51693 3.50888C1.83793 5.18731 0.694387 7.32596 0.230932 9.65434C-0.232523 11.9827 0.00492816 14.3962 0.913253 16.5897C1.82158 18.7831 3.35998 20.6579 5.33388 21.9769C7.30778 23.296 9.62851 24 12.0026 24C14.3766 24 16.6974 23.296 18.6713 21.9769C20.6452 20.6579 22.1836 18.7831 23.0919 16.5897C24.0002 14.3962 24.2377 11.9827 23.7742 9.65434C23.3108 7.32596 22.1672 5.18731 20.4882 3.50888C18.2358 1.26189 15.1841 0 12.0026 0C8.82101 0 5.76934 1.26189 3.51693 3.50888ZM18.7336 18.7256C17.1749 20.281 15.1252 21.2479 12.9336 21.4614C10.742 21.675 8.54408 21.1221 6.7144 19.8969C4.88473 18.6717 3.53646 16.8501 2.8993 14.7423C2.26214 12.6345 2.37552 10.3709 3.22011 8.33736C4.0647 6.30377 5.58825 4.62593 7.53119 3.5897C9.47413 2.55347 11.7163 2.22295 13.8756 2.65446C16.0349 3.08597 17.9778 4.25282 19.3732 5.95619C20.7687 7.65956 21.5304 9.79408 21.5285 11.9961C21.5309 13.2469 21.2851 14.4857 20.8053 15.6409C20.3256 16.796 19.6214 17.8445 18.7336 18.7256Z" fill="#5B5B5B"/>
<path d="M16.8667 7.86713C16.7514 7.75164 16.6144 7.66002 16.4636 7.59751C16.3128 7.535 16.1511 7.50282 15.9879 7.50282C15.8246 7.50282 15.663 7.535 15.5122 7.59751C15.3614 7.66002 15.2244 7.75164 15.109 7.86713L12.3669 10.6092L9.62171 7.86403C9.38863 7.63095 9.0725 7.5 8.74287 7.5C8.41324 7.5 8.09711 7.63095 7.86403 7.86403C7.63095 8.09711 7.5 8.41324 7.5 8.74287C7.5 9.0725 7.63095 9.38863 7.86403 9.62171L10.6092 12.3669L7.86403 15.1122C7.63095 15.3452 7.5 15.6614 7.5 15.991C7.5 16.3206 7.63095 16.6368 7.86403 16.8698C8.09711 17.1029 8.41324 17.2339 8.74287 17.2339C9.0725 17.2339 9.38863 17.1029 9.62171 16.8698L12.3669 14.1246L15.1122 16.8698C15.3452 17.1029 15.6614 17.2339 15.991 17.2339C16.3206 17.2339 16.6368 17.1029 16.8698 16.8698C17.1029 16.6368 17.2339 16.3206 17.2339 15.991C17.2339 15.6614 17.1029 15.3452 16.8698 15.1122L14.1246 12.3669L16.8698 9.62171C17.1017 9.38844 17.2316 9.07271 17.231 8.74378C17.2305 8.41486 17.0994 8.09959 16.8667 7.86713Z" fill="#5B5B5B"/>
</svg>
