<svg width="24" height="24" viewBox="0 0 24 24" fill="none" xmlns="http://www.w3.org/2000/svg">
<path d="M22.8119 10.8408C22.1584 10.8408 21.6238 11.3757 21.6238 12.0295V18.8884C21.6238 20.398 20.3881 21.6224 18.8792 21.6224H5.12079C3.61188 21.6224 2.37624 20.398 2.37624 18.8884V12.0295C2.37624 11.3757 1.84158 10.8408 1.18812 10.8408C0.534653 10.8408 0 11.3757 0 12.0295V18.8884C0 21.7056 2.29307 23.9998 5.12079 23.9998H18.8792C21.7069 23.9998 24 21.7056 24 18.8884V12.0295C24 11.3757 23.4653 10.8408 22.8119 10.8408Z" fill="#E87B1E"/>
<path d="M11.2268 14.003C11.4644 14.2288 11.7614 14.3477 12.0703 14.3477C12.3792 14.3477 12.6763 14.2288 12.9139 14.003L18.807 8.11887C19.2703 7.65528 19.2703 6.90639 18.807 6.4428C18.3436 5.9792 17.5951 5.9792 17.1317 6.4428L12.9733 10.5914L13.0683 1.20059C13.0683 0.546806 12.5456 0.0118871 11.8921 0H11.8802C11.2268 0 10.704 0.523032 10.6921 1.17682L10.5971 10.0327L6.87824 6.32392C6.41487 5.86033 5.66636 5.86033 5.20299 6.32392C4.73963 6.78752 4.73963 7.53641 5.20299 8L11.2268 14.003Z" fill="#E87B1E"/>
<path d="M11.2268 14.003C11.4644 14.2288 11.7614 14.3477 12.0703 14.3477C12.3792 14.3477 12.6763 14.2288 12.9139 14.003L18.807 8.11887C19.2703 7.65528 19.2703 6.90639 18.807 6.4428C18.3436 5.9792 17.5951 5.9792 17.1317 6.4428L12.9733 10.5914L13.0683 1.20059C13.0683 0.546806 12.5456 0.0118871 11.8921 0H11.8802C11.2268 0 10.704 0.523032 10.6921 1.17682L10.5971 10.0327L6.87824 6.32392C6.41487 5.86033 5.66636 5.86033 5.20299 6.32392C4.73963 6.78752 4.73963 7.53641 5.20299 8L11.2268 14.003Z" fill="#E87B1E"/>
</svg>
