<svg width="25" height="25" viewBox="0 0 25 25" fill="none" xmlns="http://www.w3.org/2000/svg">
<g clip-path="url(#clip0_703_5595)">
<path d="M8.29118 16.6194L8.29124 16.6195C8.72623 16.1991 9.41158 16.1966 9.8363 16.6213L11.406 18.191V13.3325V13.3325C11.4063 12.7335 11.9016 12.2381 12.5007 12.2381C13.1137 12.2381 13.5951 12.7348 13.5951 13.3325V18.191L15.1648 16.6213C15.5885 16.1975 16.2879 16.1975 16.7117 16.6213L16.7135 16.6231L16.7135 16.6231C17.1337 17.058 17.1364 17.743 16.7121 18.1678C16.7119 18.1679 16.7118 18.168 16.7117 18.1682L15.4906 19.4017L15.4898 19.4025L13.2742 21.6058L8.29118 16.6194ZM8.29118 16.6194L8.28765 16.6231M8.29118 16.6194L8.28765 16.6231M8.28765 16.6231C7.86723 17.0578 7.86472 17.7435 8.28942 18.1682M8.28765 16.6231L8.28942 18.1682M7.85746 22.0634L7.85738 22.0634C8.04126 22.2613 8.17443 22.5231 8.17443 22.833C8.17443 23.2637 7.92933 23.6294 7.57627 23.8088V23.9274H7.08001V23.8948C5.25523 23.6526 3.85 22.0928 3.85 20.2012V6.57627C3.85 4.51514 5.53008 2.86323 7.5753 2.85L7.57627 2.85L13.7592 2.85C14.0512 2.85 14.3285 2.96682 14.5327 3.17079L14.5328 3.17086L20.8289 9.46699C20.8841 9.52218 20.9304 9.58125 20.9641 9.64469C21.0054 9.70185 21.0336 9.75843 21.0588 9.81992C21.0874 9.86881 21.105 9.92651 21.1135 9.95456C21.115 9.95944 21.1162 9.96342 21.1171 9.9663C21.1172 9.96639 21.1172 9.96648 21.1172 9.96656L20.9748 10.0137L7.85746 22.0634ZM7.85746 22.0634L7.8535 22.0594C7.77152 21.9775 7.67778 21.9097 7.57604 21.8578V21.7386C7.15048 21.7386 6.77356 21.5786 6.48705 21.2926C6.2098 21.0032 6.03884 20.6245 6.03884 20.2014V6.5765C6.03884 5.7274 6.72717 5.03907 7.57627 5.03907H12.6648V7.72232C12.6648 9.71918 14.2808 11.3352 16.2777 11.3352H18.9612V20.2009C18.9612 21.05 18.2728 21.7384 17.4237 21.7384V21.8576C17.322 21.9095 17.2283 21.9773 17.1464 22.0592L17.1464 22.0592L17.1425 22.0633C16.9591 22.2613 16.8256 22.5228 16.8256 22.8328C16.8256 23.2635 17.0707 23.6291 17.4237 23.8086M7.85746 22.0634L17.4237 23.8086M17.4237 23.8086V23.9272H17.92V23.8949L17.4237 23.8086ZM8.28942 18.1682L11.7273 21.6061C11.8312 21.7099 11.9484 21.7825 12.0746 21.8385C12.2084 21.8979 12.3552 21.9269 12.5007 21.9269C12.6461 21.9269 12.793 21.8979 12.927 21.8382L8.28942 18.1682ZM12.9271 21.8382C13.0527 21.7823 13.1699 21.7101 13.2739 21.6061L12.9271 21.8382Z" fill="#092853" stroke="#092853" stroke-width="0.3"/>
</g>
<defs>
<clipPath id="clip0_703_5595">
<rect width="24" height="24" fill="white" transform="translate(0.5 0.5)"/>
</clipPath>
</defs>
</svg>
