<svg width="15" height="18" viewBox="0 0 15 18" fill="none" xmlns="http://www.w3.org/2000/svg">
<path d="M4.07959 12.6338C3.77529 12.3295 3.77529 11.8362 4.07959 11.5215C4.39447 11.2172 4.88758 11.2172 5.19188 11.5215L6.71337 13.043V8.69247C6.71356 8.26229 7.0704 7.90545 7.50058 7.90545C7.94134 7.90545 8.28759 8.26229 8.28759 8.69247V13.043L9.80908 11.5215C10.1134 11.2172 10.6171 11.2172 10.9214 11.5215C11.2257 11.8364 11.2257 12.3295 10.9214 12.6338L9.90339 13.6621L8.05682 15.4985C7.98329 15.572 7.89938 15.6244 7.80507 15.6664C7.71037 15.7085 7.60547 15.7295 7.50058 15.7295C7.39568 15.7295 7.29078 15.7085 7.19628 15.6665C7.10177 15.6246 7.01786 15.572 6.94453 15.4987L4.07959 12.6338Z" fill="#092853"/>
<path d="M2.98336 15.8225C3.19316 15.8225 3.39256 15.9065 3.5396 16.0533C3.67607 16.2002 3.77038 16.3892 3.77038 16.6096C3.77038 17.0503 3.41353 17.3966 2.98336 17.3966H3.39691C1.74936 17.3966 0.416687 16.0639 0.416687 14.4163V3.06226C0.416687 1.4147 1.75994 0.0926172 3.39691 0.0820312H8.54937C8.75917 0.0820312 8.95857 0.165949 9.10562 0.312804L14.3524 5.55957C14.3943 5.60153 14.4259 5.64349 14.4469 5.68545C14.4785 5.72741 14.4994 5.76937 14.5204 5.82191C14.5414 5.85348 14.552 5.89544 14.5624 5.92681C14.5834 5.98975 14.5834 6.05269 14.5834 6.12621V14.4161C14.5834 16.0637 13.2611 17.3964 11.6031 17.3964H12.0167C11.5865 17.3964 11.2297 17.0501 11.2297 16.6094C11.2297 16.389 11.3242 16.2002 11.4604 16.0531C11.6073 15.9063 11.8067 15.8223 12.0167 15.8223H11.6031C12.3797 15.8223 13.0093 15.1928 13.0093 14.4161V6.90303H10.6481C9.05307 6.90303 7.76236 5.61231 7.76236 4.0173V1.65626H3.39691C2.62029 1.65626 1.99072 2.28583 1.99072 3.06245V14.4165C1.99072 14.8047 2.14816 15.151 2.39991 15.4133C2.66225 15.6757 3.00851 15.8225 3.39672 15.8225H2.98336Z" fill="#092853"/>
</svg>
