<svg width="100" height="74" viewBox="0 0 100 74" fill="none" xmlns="http://www.w3.org/2000/svg">
<path fill-rule="evenodd" clip-rule="evenodd" d="M68.1631 71.9303H69.7853L71.8768 64.1367H70.2544L68.1631 71.9303ZM71.3863 71.9303H73.0087L74.546 66.207H72.924L71.3863 71.9303ZM73.051 65.5777H74.7579L75.1544 64.1367H73.4446L73.051 65.5777ZM76.1775 71.9725H77.6513L81.4192 66.207H79.6789L77.4062 70.0203L77.1489 66.207H75.4842L76.1775 71.9725Z" fill="#E87B1E"/>
<path fill-rule="evenodd" clip-rule="evenodd" d="M16.6877 70.7223C17.441 70.7223 18.0964 70.4738 18.5306 70.0421C18.8418 69.7232 19.035 69.3141 19.035 68.8444C19.035 68.0487 18.4955 67.6143 17.4333 67.2075C16.4593 66.8261 16.0598 66.57 16.0598 66.0653C16.0598 65.4979 16.6175 64.9756 17.5461 64.9756C18.2745 64.9756 18.8418 65.2493 19.2913 65.7463L19.806 65.2846C19.3365 64.735 18.5755 64.3455 17.6094 64.3455C16.8484 64.3455 16.2182 64.5943 15.8042 65.0109C15.4853 65.3195 15.3243 65.7188 15.3243 66.143C15.3243 66.9491 15.8821 67.3482 17.0244 67.8001C17.981 68.1717 18.2992 68.4555 18.2992 68.9348C18.2992 69.6076 17.6266 70.0947 16.7331 70.0947C15.8216 70.0947 15.2088 69.7658 14.6866 69.1281L14.1543 69.5449C14.6866 70.2803 15.5451 70.7223 16.6877 70.7223ZM19.9041 70.6345H20.5842L21.8166 66.0554H21.1338L19.9041 70.6345ZM21.3549 65.0534H22.1354L22.3391 64.3029H21.5584L21.3549 65.0534ZM22.178 70.6345H22.8615L23.5516 68.0487C23.7827 67.1977 24.4632 66.57 25.1358 66.57C25.7308 66.57 26.0924 66.9315 26.0924 67.5264C26.0924 67.6769 26.0673 67.888 26.0222 68.0385L25.3316 70.6345H26.0143L26.6948 68.0487C26.9261 67.1977 27.6088 66.57 28.2813 66.57C28.8741 66.57 29.2277 66.9315 29.2277 67.5264C29.2277 67.6769 29.203 67.888 29.1653 68.0385L28.4676 70.6345H29.1477L29.8309 68.0836C29.8837 67.8454 29.9537 67.5866 29.9537 67.3756C29.9537 66.5249 29.3786 65.9574 28.5551 65.9574C27.7394 65.9574 27.1194 66.3665 26.7127 66.9942C26.5896 66.4544 26.1824 65.9574 25.4121 65.9574C24.739 65.9574 24.3046 66.3287 23.8878 66.7984L24.0811 66.0554H23.4009L22.178 70.6345ZM33.2651 70.74C33.9028 70.74 34.5154 70.4663 34.985 69.997C35.4968 69.4821 35.8333 68.7392 35.8333 67.898C35.8333 66.7282 35.0547 65.9574 34.0182 65.9574C33.2827 65.9574 32.7255 66.3387 32.2834 66.8435L32.4939 66.0554H31.8138L30.2098 72.0506H30.8924L31.5475 69.6076C31.8039 70.2103 32.3258 70.74 33.2651 70.74ZM33.2048 70.1377C32.3639 70.1377 31.7859 69.5098 31.7859 68.7115C31.7859 68.1289 32.0623 67.5792 32.4694 67.1726C32.8406 66.791 33.3379 66.5598 33.8249 66.5598C34.5959 66.5598 35.1178 67.1094 35.1178 67.9608C35.1178 68.5985 34.8693 69.1909 34.4626 69.6076C34.1335 69.9267 33.6916 70.1377 33.2048 70.1377ZM36.4913 70.6345H37.1714L38.9086 64.1697H38.226L36.4913 70.6345ZM38.8286 70.6345H39.5089L40.7411 66.0554H40.0583L38.8286 70.6345ZM40.2792 65.0534H41.0599L41.2637 64.3029H40.4829L40.2792 65.0534ZM41.3592 70.6345H42.0419L43.114 66.6577H44.6003L44.7683 66.0554H43.2724L43.3877 65.6135C43.548 65.0109 43.8747 64.7448 44.309 64.7448C44.575 64.7448 44.7959 64.8076 45.0618 64.9306L45.2204 64.3455C44.9822 64.2225 44.6629 64.1523 44.309 64.1523C43.8747 64.1523 43.5131 64.2851 43.237 64.559C43.0058 64.7899 42.8479 65.0913 42.7324 65.523L42.5919 66.0554H41.9614L41.8034 66.6577H42.4311L41.3592 70.6345ZM45.8783 70.6247C45.4164 71.2721 45.0724 71.4754 44.6808 71.4754C44.4597 71.4754 44.1512 71.3778 43.9829 71.2445L43.6087 71.7592C43.9024 71.9626 44.2212 72.0782 44.6103 72.0782C45.2932 72.0782 45.8402 71.7315 46.4884 70.7851L49.6237 66.0554H48.8532L46.3904 69.8737L45.7527 66.0554H45.0446L45.8783 70.6247ZM49.5709 70.6345H50.2513L51.4842 66.0554H50.8012L49.5709 70.6345ZM51.0223 65.0534H51.803L52.0065 64.3029H51.2258L51.0223 65.0534ZM51.8456 70.6345H52.5284L53.219 68.0487C53.4575 67.1799 54.1655 66.57 54.8735 66.57C55.5114 66.57 55.9028 66.9238 55.9028 67.5264C55.9028 67.6769 55.8753 67.888 55.8302 68.0385L55.1397 70.6345H55.8223L56.4954 68.0836C56.558 67.8454 56.611 67.5866 56.611 67.3756C56.611 66.5072 56.0361 65.9574 55.1498 65.9574C54.4495 65.9574 53.9722 66.3287 53.5552 66.7984L53.7487 66.0554H53.0683L51.8456 70.6345ZM59.2521 72.0706C60.0303 72.0706 60.5979 71.8471 61.0217 71.4229C61.351 71.094 61.572 70.6873 61.7678 69.9793L62.812 66.0554H62.1294L61.8631 67.057C61.6068 66.5072 61.1652 65.9574 60.1812 65.9574C59.5258 65.9574 58.8606 66.241 58.383 66.7205C57.9236 67.1799 57.6125 67.8103 57.6125 68.5534C57.6125 69.6502 58.5165 70.2803 59.4732 70.2803C60.2261 70.2803 60.7659 69.9267 61.2254 69.457L61.1022 69.9167C60.9689 70.3861 60.811 70.74 60.5275 71.0163C60.2512 71.2998 59.8172 71.4856 59.2418 71.4856C58.5416 71.4856 57.9236 71.2094 57.4341 70.7952L57.0103 71.2721C57.5771 71.7692 58.4106 72.0706 59.2521 72.0706ZM59.6663 69.6955C58.9685 69.6955 58.3308 69.2786 58.3308 68.4653C58.3308 67.9232 58.5615 67.4562 58.8976 67.1173C59.2521 66.7631 59.7216 66.5598 60.2158 66.5598C61.0921 66.5598 61.6248 67.1799 61.6248 67.8527C61.6248 68.3046 61.411 68.749 61.0673 69.0928C60.703 69.457 60.1986 69.6955 59.6663 69.6955Z" fill="#092853"/>
<path fill-rule="evenodd" clip-rule="evenodd" d="M86.566 69.6212C86.7477 69.1821 86.8535 68.7221 86.8535 68.3167C86.8535 67.0454 86 66.0859 84.5141 66.0859C83.5547 66.0859 82.7433 66.4705 82.1563 67.0573C81.5056 67.7083 81.1211 68.6162 81.1211 69.5028C81.1211 71.0829 82.1228 72.0424 83.7694 72.0424C84.7409 72.0424 85.4551 71.7122 85.9669 71.2855L85.2192 70.2807C84.7502 70.6136 84.3776 70.7408 83.951 70.7408C83.0947 70.7408 82.6889 70.293 82.6373 69.6212H86.566ZM83.2459 67.8687C83.5424 67.569 83.939 67.3873 84.3869 67.3873C85.0497 67.3873 85.3283 67.7627 85.3283 68.2318C85.3283 68.3711 85.3069 68.4985 85.2736 68.6041H82.7859C82.8917 68.3167 83.0431 68.0715 83.2459 67.8687ZM89.4804 72.0424C90.8456 72.0424 91.8291 71.2733 91.8291 70.0267C91.8291 69.1276 91.006 68.7344 90.2584 68.4013C89.7771 68.1895 89.5018 68.029 89.5018 67.805C89.5018 67.5055 89.735 67.324 90.1313 67.324C90.6004 67.324 91.0695 67.4934 91.6263 67.9322L92.501 66.9061C92.0319 66.4915 91.1753 66.0859 90.2495 66.0859C88.8267 66.0859 87.9522 66.9515 87.9522 68.0925C87.9522 69.0095 88.7211 69.3848 89.6167 69.7695C90.0134 69.9388 90.2795 70.0902 90.2795 70.3021C90.2795 70.6228 90.0221 70.8043 89.5955 70.8043C89.0841 70.8043 88.4424 70.6347 87.8463 70.0356L86.9051 71.0071C87.5796 71.7122 88.6148 72.0424 89.4804 72.0424ZM92.6282 71.9152H93.6116L93.9115 70.7952H92.9399L92.6282 71.9152Z" fill="#E87B1E"/>
<path fill-rule="evenodd" clip-rule="evenodd" d="M0.146617 39.4804C-1.14 30.536 6.27251 23.2407 13.3147 18.7427C22.9124 12.612 35.1429 9.07252 46.4116 7.52381C52.6301 6.66911 58.9497 6.35473 65.2145 6.70437C70.6627 7.00804 76.165 7.81187 81.38 9.38584C89.3894 11.8029 98.5672 16.7983 99.8533 25.7382C101.14 34.6825 93.7274 41.9779 86.6851 46.4757C77.0872 52.6066 64.857 56.1461 53.5883 57.6946C47.3702 58.5491 41.0504 58.8638 34.7858 58.5142C29.3372 58.2102 23.8357 57.4065 18.6203 55.8326C10.6109 53.416 1.43271 48.4204 0.146617 39.4804ZM31.2194 13.4962L33.4725 29.6306C35.2096 27.4227 37.9053 26.0036 40.9308 26.0034C45.1664 26.0036 48.7561 28.7849 49.9729 32.6196C50.0971 27.4923 54.2972 23.3688 59.4544 23.3688C63.4793 23.3686 66.921 25.8806 68.2974 29.4206C68.7337 24.5891 72.7979 20.7987 77.7426 20.7984C82.9779 20.7987 87.2272 25.048 87.2275 30.2836C87.2272 35.5188 82.978 39.7681 77.7426 39.7681C73.7179 39.7681 70.2763 37.2565 68.8995 33.7163C68.4632 38.548 64.3989 42.3385 59.4542 42.3385C55.2191 42.3385 51.6295 39.5569 50.4127 35.7229C50.2879 40.85 46.0879 44.973 40.9308 44.973C37.2437 44.973 34.0458 42.8652 32.4765 39.7899C31.6169 43.672 28.1836 46.8615 24.0444 47.4436C18.8473 48.1739 14.0464 44.5814 13.321 39.4197C13.3138 39.3685 13.3078 39.3171 13.3014 39.2662C13.2492 38.8701 13.2222 38.4641 13.2217 38.0496C13.2138 32.8154 17.4115 28.5733 22.5908 28.5809C26.494 28.5872 29.8467 31.0051 31.2654 34.4369L28.4564 14.4051C23.5729 16.1052 18.8908 18.2536 14.749 20.8992C8.64522 24.798 1.63743 31.309 2.75914 39.1071C3.88138 46.9059 12.4575 51.2696 19.4115 53.3681C24.4055 54.8749 29.7312 55.648 34.951 55.9394C41.035 56.2787 47.1975 55.9703 53.2355 55.1407C64.0842 53.6498 76.0118 50.2205 85.2507 44.3193C91.3547 40.4206 98.3625 33.9094 97.2408 26.1115C96.1189 18.3127 87.5422 13.949 80.5885 11.8505C75.5948 10.3435 70.2687 9.56987 65.0495 9.279C58.9651 8.93972 52.8029 9.24777 46.7644 10.0776C41.6904 10.7749 36.3802 11.8961 31.2194 13.4962ZM40.9308 28.9372C37.3146 28.9372 34.3793 31.8721 34.3796 35.4885C34.3796 39.1046 37.3146 42.0393 40.9308 42.0393C44.5471 42.0394 47.4819 39.1046 47.4819 35.4885C47.4819 31.8721 44.5471 28.9372 40.9308 28.9372ZM29.0842 37.9628L16.3474 39.7669C16.5789 40.657 16.9824 41.4968 17.5177 42.2326C18.9241 43.9673 21.1998 44.9363 23.6436 44.5928C27.0703 44.1113 29.9382 41.1533 29.9302 37.8626L29.0849 37.981L29.0842 37.9628ZM16.2254 36.8844L28.4055 35.1594C27.341 33.0031 25.1372 31.5179 22.5952 31.5141C19.4127 31.509 16.7674 33.8271 16.2254 36.8844ZM68.2965 29.4312L65.28 29.855C64.1912 27.746 61.9906 26.3024 59.4548 26.3022C55.8377 26.3024 52.9033 29.2371 52.9033 32.8538C52.9033 36.4702 55.8379 39.4048 59.4544 39.4046C62.6336 39.4048 65.2859 37.1361 65.8806 34.1305L68.896 33.7068C68.4842 32.6446 68.2579 31.4904 68.2579 30.2834C68.2579 29.9959 68.2716 29.7117 68.2965 29.4312ZM77.7426 23.7323C74.1263 23.7321 71.1913 26.6672 71.1913 30.2836C71.1913 33.8998 74.1263 36.8346 77.7426 36.8346C81.359 36.8346 84.2938 33.8998 84.2938 30.2836C84.2938 26.6672 81.3588 23.7323 77.7426 23.7323ZM94.4192 4.33078H95.134C95.5698 4.33078 95.8477 4.31657 95.967 4.28797C96.0861 4.25973 96.1822 4.20219 96.2568 4.115C96.3298 4.02833 96.3677 3.9122 96.3677 3.76835C96.3677 3.62976 96.3298 3.51836 96.2568 3.43415C96.1822 3.35012 96.0821 3.29257 95.9549 3.26117C95.8651 3.23872 95.6038 3.22872 95.173 3.22872H94.4192V4.33078ZM93.4592 6.83875V2.49296H95.4863C96.0047 2.49296 96.3754 2.53243 96.5978 2.6105C96.8198 2.68839 97.0027 2.82435 97.1448 3.01627C97.2885 3.2096 97.3589 3.44046 97.3589 3.7087C97.3589 4.04851 97.251 4.32271 97.0327 4.53024C96.8131 4.7376 96.5033 4.86778 96.1024 4.92041C96.3082 5.03163 96.4789 5.1525 96.6127 5.28372C96.748 5.41512 96.9324 5.65108 97.1654 5.99106L97.7432 6.83875H96.5978L95.8994 5.89282C95.6486 5.55178 95.4781 5.33723 95.3872 5.25162C95.2981 5.16531 95.2017 5.10654 95.1014 5.07338C95.0012 5.04058 94.8404 5.02479 94.6183 5.02479H94.4192V6.83875H93.4592ZM90.6456 5.28355C90.2855 2.75418 92.0824 0.400762 94.6458 0.0453377C97.209 -0.310087 99.5939 1.46335 99.954 3.99272C100.314 6.52227 98.5172 8.87534 95.9538 9.23076C93.3908 9.58618 91.0058 7.81292 90.6456 5.28355ZM91.557 5.15706C91.2675 3.12311 92.7127 1.23073 94.7739 0.945127C96.835 0.658998 98.7527 2.08526 99.0423 4.11886C99.3319 6.15299 97.8871 8.04519 95.8258 8.33132C93.7646 8.61692 91.847 7.19101 91.557 5.15706Z" fill="#092853"/>
</svg>
