<svg width="23" height="19" viewBox="0 0 23 19" fill="none" xmlns="http://www.w3.org/2000/svg">
<path d="M21.1223 15.7747V15.0902V15.7747ZM21.1223 15.7747C21.1226 16.2878 20.6937 16.7053 20.167 16.7053H2.73541C2.20875 16.7053 1.77986 16.2878 1.77986 15.7744V15.0899L21.1223 15.7747ZM15.6264 9.42745L20.9723 15.1493V15.7747V15.7747C20.9726 16.2012 20.6147 16.5553 20.167 16.5553H2.73541C2.28785 16.5553 1.92986 16.2012 1.92986 15.7744V15.1491L7.26159 9.44306L10.9821 12.0082L10.9822 12.0082C11.1231 12.1052 11.2871 12.1535 11.451 12.1535C11.616 12.1535 11.7814 12.1046 11.923 12.006C11.923 12.006 11.9231 12.006 11.9231 12.006L15.6264 9.42745ZM20.167 0.85H2.73541C1.39702 0.85 0.301233 1.91173 0.301233 3.22535V15.7747C0.301233 17.088 1.39673 18.15 2.73541 18.15H20.167C21.5054 18.15 22.6012 17.0883 22.6012 15.7747V3.22535C22.6012 1.91173 21.5054 0.85 20.167 0.85ZM20.9726 5.7053V12.7872L16.9638 8.49651L20.9726 5.7053ZM2.73541 2.44441H20.167C20.6146 2.44441 20.9726 2.79852 20.9726 3.22535V3.7484L11.449 10.3798L1.92986 3.81656V3.22535C1.92986 2.79852 2.28785 2.44441 2.73541 2.44441ZM1.92986 12.7872V5.76687L5.91921 8.51754L1.92986 12.7872Z" fill="#092853" stroke="#092853" stroke-width="0.3"/>
</svg>
