<svg width="24" height="24" viewBox="0 0 24 24" fill="none" xmlns="http://www.w3.org/2000/svg">
<g clip-path="url(#clip0_2877_2410)">
<path fill-rule="evenodd" clip-rule="evenodd" d="M12 0C18.6274 0 24 5.37259 24 12C24 18.6274 18.6274 24 12 24C5.37259 24 0 18.6274 0 12C0 5.37259 5.37259 0 12 0Z" fill="white"/>
<path d="M13.5622 23.8975V14.6266H16.1775L16.5241 11.3637H13.5622L13.5666 9.73045C13.5666 8.87941 13.6475 8.42362 14.8707 8.42362H16.5058V5.16016H13.89C10.7479 5.16016 9.6422 6.74294 9.6422 9.40508V11.3639H7.68356V14.6271H9.6422V23.766C10.4052 23.918 11.1941 23.9982 12.0018 23.9982C12.5236 23.9982 13.0448 23.9646 13.5622 23.8975Z" fill="#092853"/>
</g>
<defs>
<clipPath id="clip0_2877_2410">
<rect width="24" height="24" fill="white"/>
</clipPath>
</defs>
</svg>
