<svg width="25" height="24" viewBox="0 0 25 24" fill="none" xmlns="http://www.w3.org/2000/svg">
<g clip-path="url(#clip0_1176_4140)">
<path fill-rule="evenodd" clip-rule="evenodd" d="M12.3333 0C18.9607 0 24.3333 5.37259 24.3333 12C24.3333 18.6274 18.9607 24 12.3333 24C5.70584 24 0.333252 18.6274 0.333252 12C0.333252 5.37259 5.70584 0 12.3333 0Z" fill="#092853"/>
<path d="M13.8955 23.8975V14.6266H16.5107L16.8574 11.3637H13.8955L13.8999 9.73045C13.8999 8.87941 13.9808 8.42362 15.2039 8.42362H16.839V5.16016H14.2232C11.0812 5.16016 9.97546 6.74294 9.97546 9.40508V11.3639H8.01682V14.6271H9.97546V23.766C10.7385 23.918 11.5274 23.9982 12.335 23.9982C12.8568 23.9982 13.3781 23.9646 13.8955 23.8975Z" fill="white"/>
</g>
<defs>
<clipPath id="clip0_1176_4140">
<rect width="24" height="24" fill="white" transform="translate(0.333252)"/>
</clipPath>
</defs>
</svg>
