<svg width="16" height="17" viewBox="0 0 16 17" fill="none" xmlns="http://www.w3.org/2000/svg">
<path d="M9.875 14.7498V10.9998C9.875 10.834 9.80915 10.6751 9.69194 10.5579C9.57473 10.4406 9.41576 10.3748 9.25 10.3748H6.75C6.58424 10.3748 6.42527 10.4406 6.30806 10.5579C6.19085 10.6751 6.125 10.834 6.125 10.9998V14.7498C6.125 14.9156 6.05915 15.0745 5.94194 15.1917C5.82473 15.309 5.66576 15.3748 5.5 15.3748H1.75C1.58424 15.3748 1.42527 15.309 1.30806 15.1917C1.19085 15.0745 1.125 14.9156 1.125 14.7498V7.52324C1.1264 7.43674 1.14509 7.3514 1.17998 7.27224C1.21486 7.19308 1.26523 7.1217 1.32812 7.0623L7.57812 1.38261C7.69334 1.27721 7.84384 1.21875 8 1.21875C8.15616 1.21875 8.30666 1.27721 8.42187 1.38261L14.6719 7.0623C14.7348 7.1217 14.7851 7.19308 14.82 7.27224C14.8549 7.3514 14.8736 7.43674 14.875 7.52324V14.7498C14.875 14.9156 14.8092 15.0745 14.6919 15.1917C14.5747 15.309 14.4158 15.3748 14.25 15.3748H10.5C10.3342 15.3748 10.1753 15.309 10.0581 15.1917C9.94085 15.0745 9.875 14.9156 9.875 14.7498Z" stroke="white" stroke-width="1.5" stroke-linecap="round" stroke-linejoin="round"/>
</svg>
