<svg width="24" height="18" viewBox="0 0 24 18" fill="none" xmlns="http://www.w3.org/2000/svg">
<path d="M0.748021 10.2361L8.00998 17.4981C8.67917 18.1673 9.79449 18.1673 10.4637 17.4981C11.1329 16.8289 11.1329 15.7136 10.4637 15.0444L6.1759 10.7318L22.0382 10.7318C23.0048 10.7318 23.7731 9.96351 23.7731 8.9969C23.7731 8.03029 23.0048 7.26196 22.0382 7.26196L6.1759 7.26196L10.4637 2.97418C11.1329 2.30499 11.1329 1.18967 10.4637 0.520482C10.1167 0.173494 9.67057 0 9.22444 0C8.77831 0 8.33219 0.173494 7.9852 0.520482L0.748021 7.75766C0.425818 8.07986 0.227539 8.52599 0.227539 8.9969C0.227539 9.46781 0.401033 9.91394 0.748021 10.2361Z" fill="white"/>
</svg>
