<svg width="57" height="57" viewBox="0 0 57 57" fill="none" xmlns="http://www.w3.org/2000/svg">
<path opacity="0.06" d="M8.35091 8.3336C4.36414 12.3199 1.64882 17.3991 0.548346 22.9291C-0.552123 28.459 0.0117018 34.1911 2.16851 39.4005C4.32532 44.6098 7.97823 49.0625 12.6652 52.1952C17.3523 55.3279 22.8628 57 28.5 57C34.1372 57 39.6477 55.3279 44.3348 52.1952C49.0218 49.0625 52.6747 44.6098 54.8315 39.4005C56.9883 34.1911 57.5521 28.459 56.4517 22.9291C55.3512 17.3991 52.6359 12.3199 48.6491 8.3336C43.3008 2.997 36.0546 0 28.5 0C20.9454 0 13.6992 2.997 8.35091 8.3336Z" fill="white"/>
<path d="M16.6892 17.6785C14.4506 19.9164 12.9258 22.7679 12.3079 25.8725C11.69 28.977 12.0066 32.195 13.2177 35.1196C14.4288 38.0441 16.48 40.5438 19.1118 42.3026C21.7437 44.0613 24.838 45 28.0034 45C31.1688 45 34.2632 44.0613 36.895 42.3026C39.5269 40.5438 41.5781 38.0441 42.7892 35.1196C44.0003 32.195 44.3169 28.977 43.6989 25.8725C43.081 22.7679 41.5563 19.9164 39.3176 17.6785C36.3144 14.6825 32.2455 13 28.0034 13C23.7613 13 19.6925 14.6825 16.6892 17.6785ZM36.9782 37.9675C34.8999 40.0413 32.1669 41.3305 29.2448 41.6153C26.3226 41.9 23.3921 41.1628 20.9525 39.5292C18.513 37.8957 16.7153 35.4667 15.8657 32.6563C15.0162 29.8459 15.1674 26.8279 16.2935 24.1165C17.4196 21.405 19.451 19.1679 22.0416 17.7863C24.6322 16.4046 27.6217 15.9639 30.5007 16.5393C33.3798 17.1146 35.9703 18.6704 37.831 20.9416C39.6916 23.2128 40.7072 26.0588 40.7047 28.9948C40.7079 30.6625 40.3801 32.3143 39.7404 33.8545C39.1008 35.3947 38.1619 36.7926 36.9782 37.9675Z" fill="white"/>
<path d="M34.0051 22.9954C33.8513 22.8414 33.6686 22.7192 33.4675 22.6359C33.2665 22.5525 33.051 22.5096 32.8333 22.5096C32.6156 22.5096 32.4001 22.5525 32.1991 22.6359C31.998 22.7192 31.8153 22.8414 31.6615 22.9954L28.0054 26.6515L24.3451 22.9912C24.0343 22.6805 23.6128 22.5059 23.1733 22.5059C22.7338 22.5059 22.3123 22.6805 22.0015 22.9912C21.6907 23.302 21.5161 23.7235 21.5161 24.163C21.5161 24.6025 21.6907 25.024 22.0015 25.3348L25.6618 28.9951L22.0015 32.6554C21.6907 32.9662 21.5161 33.3877 21.5161 33.8272C21.5161 34.2667 21.6907 34.6882 22.0015 34.999C22.3123 35.3098 22.7338 35.4843 23.1733 35.4843C23.6128 35.4843 24.0343 35.3098 24.3451 34.999L28.0054 31.3387L31.6656 34.999C31.9764 35.3098 32.3979 35.4843 32.8374 35.4843C33.2769 35.4843 33.6985 35.3098 34.0092 34.999C34.32 34.6882 34.4946 34.2667 34.4946 33.8272C34.4946 33.3877 34.32 32.9662 34.0092 32.6554L30.3489 28.9951L34.0092 25.3348C34.3184 25.0238 34.4916 24.6028 34.4908 24.1642C34.4901 23.7257 34.3154 23.3053 34.0051 22.9954Z" fill="white"/>
</svg>
