<svg width="23" height="20" viewBox="0 0 23 20" fill="none" xmlns="http://www.w3.org/2000/svg">
<path fill-rule="evenodd" clip-rule="evenodd" d="M15.9402 0.166748C14.3326 0.166748 12.7262 0.779674 11.5003 2.00553C10.2732 0.779674 8.66678 0.166748 7.0591 0.166748C5.26303 0.166748 3.46821 0.931649 2.20342 2.46271C0.114705 4.99228 0.490247 8.75901 2.80881 11.0788L10.6111 18.8798C10.8572 19.126 11.1788 19.2478 11.5003 19.2478C11.8206 19.2478 12.1421 19.126 12.3883 18.8798L20.1905 11.0788C22.5091 8.75901 22.8846 4.99228 20.7959 2.46271C19.5324 0.931649 17.7363 0.166748 15.9402 0.166748ZM15.9402 2.67874C17.0694 2.67874 18.1332 3.18365 18.8592 4.06285C20.075 5.53487 19.879 7.83586 18.4146 9.3016L11.5003 16.2159L4.58605 9.3016C3.1203 7.83586 2.92437 5.53487 4.14017 4.06285C4.86614 3.18365 5.92996 2.67874 7.0591 2.67874C8.06515 2.67874 9.01218 3.07061 9.72307 3.78276L11.5003 5.55874L13.2763 3.78276C13.9872 3.07061 14.9342 2.67874 15.9402 2.67874Z" fill="#092853"/>
</svg>
