<svg width="24" height="22" viewBox="0 0 24 22" fill="none" xmlns="http://www.w3.org/2000/svg">
<mask id="mask0_588_9974" style="mask-type:alpha" maskUnits="userSpaceOnUse" x="0" y="0" width="24" height="22">
<rect y="0.417969" width="24" height="21" fill="#D9D9D9"/>
</mask>
<g mask="url(#mask0_588_9974)">
<path d="M9.68359 10.9043C10.2336 10.9043 10.7044 10.7085 11.0961 10.3168C11.4878 9.92513 11.6836 9.4543 11.6836 8.9043C11.6836 8.3543 11.4878 7.88346 11.0961 7.4918C10.7044 7.10013 10.2336 6.9043 9.68359 6.9043C9.13359 6.9043 8.66276 7.10013 8.27109 7.4918C7.87943 7.88346 7.68359 8.3543 7.68359 8.9043C7.68359 9.4543 7.87943 9.92513 8.27109 10.3168C8.66276 10.7085 9.13359 10.9043 9.68359 10.9043ZM9.68359 18.2543C11.7169 16.3876 13.2253 14.6918 14.2086 13.1668C15.1919 11.6418 15.6836 10.2876 15.6836 9.1043C15.6836 7.28763 15.1044 5.80013 13.9461 4.6418C12.7878 3.48346 11.3669 2.9043 9.68359 2.9043C8.00026 2.9043 6.57943 3.48346 5.42109 4.6418C4.26276 5.80013 3.68359 7.28763 3.68359 9.1043C3.68359 10.2876 4.17526 11.6418 5.15859 13.1668C6.14193 14.6918 7.65026 16.3876 9.68359 18.2543ZM9.68359 20.9043C7.00026 18.621 4.99609 16.5001 3.67109 14.5418C2.34609 12.5835 1.68359 10.771 1.68359 9.1043C1.68359 6.6043 2.48776 4.61263 4.09609 3.1293C5.70443 1.64596 7.56693 0.904297 9.68359 0.904297C11.8003 0.904297 13.6628 1.64596 15.2711 3.1293C16.8794 4.61263 17.6836 6.6043 17.6836 9.1043C17.6836 10.771 17.0211 12.5835 15.6961 14.5418C14.3711 16.5001 12.3669 18.621 9.68359 20.9043Z" fill="#092853"/>
</g>
</svg>
