<svg width="18" height="21" viewBox="0 0 18 21" fill="none" xmlns="http://www.w3.org/2000/svg">
<path fill-rule="evenodd" clip-rule="evenodd" d="M0.289062 9.1869C0.289062 4.58703 4.13294 0.869141 8.78251 0.869141C13.4452 0.869141 17.2891 4.58703 17.2891 9.1869C17.2891 11.5048 16.4461 13.6568 15.0586 15.4807C13.5279 17.4927 11.6412 19.2456 9.5176 20.6216C9.03157 20.9396 8.59294 20.9636 8.05951 20.6216C5.9238 19.2456 4.03715 17.4927 2.51956 15.4807C1.13105 13.6568 0.289062 11.5048 0.289062 9.1869ZM5.98329 9.44589C5.98329 10.9868 7.24072 12.1988 8.78251 12.1988C10.3253 12.1988 11.5948 10.9868 11.5948 9.44589C11.5948 7.91694 10.3253 6.64597 8.78251 6.64597C7.24072 6.64597 5.98329 7.91694 5.98329 9.44589Z" fill="#E87B1E"/>
</svg>
