<svg width="24" height="18" viewBox="0 0 24 18" fill="none" xmlns="http://www.w3.org/2000/svg">
<path d="M23.253 7.76386L15.991 0.501891C15.3218 -0.1673 14.2065 -0.1673 13.5373 0.501891C12.8681 1.17108 12.8681 2.2864 13.5373 2.95559L17.8251 7.26816L1.96277 7.26816C0.99616 7.26816 0.227828 8.03649 0.227828 9.0031C0.227828 9.96971 0.996159 10.738 1.96277 10.738L17.8251 10.738L13.5373 15.0258C12.8681 15.695 12.8681 16.8103 13.5373 17.4795C13.8843 17.8265 14.3304 18 14.7765 18C15.2227 18 15.6688 17.8265 16.0158 17.4795L23.253 10.2423C23.5752 9.92014 23.7734 9.47401 23.7734 9.0031C23.7734 8.53219 23.5999 8.08606 23.253 7.76386Z" fill="#092853"/>
</svg>
