<svg width="25" height="24" viewBox="0 0 25 24" fill="none" xmlns="http://www.w3.org/2000/svg">
<g clip-path="url(#clip0_1176_4138)">
<path d="M10.8693 0.080263C6.88105 0.525488 2.90682 3.7522 2.74279 8.36146C2.63969 11.1758 3.43875 13.2871 6.11714 13.8799C7.27941 11.8295 5.74221 11.3773 5.50319 9.89397C4.52135 3.81547 12.5143 -0.329813 16.6971 3.91389C19.5911 6.85238 17.686 15.8928 13.0181 14.9531C8.54713 14.0557 15.2068 6.85941 11.6379 5.4464C8.73694 4.29819 7.19505 8.959 8.57057 11.2742C7.76447 15.2554 6.02809 19.007 6.73108 24.0006C9.01111 22.3462 9.77971 19.1781 10.4101 15.8741C11.5559 16.57 12.1675 17.2941 13.6297 17.4066C19.0217 17.8237 22.0328 12.024 21.297 6.67429C20.6432 1.93146 15.9098 -0.482127 10.8693 0.080263Z" fill="#092853"/>
</g>
<defs>
<clipPath id="clip0_1176_4138">
<rect width="24" height="24" fill="white" transform="translate(0.333252)"/>
</clipPath>
</defs>
</svg>
