<svg width="18" height="15" viewBox="0 0 18 15" fill="none" xmlns="http://www.w3.org/2000/svg">
<path d="M13.4 14.4C12.32 14.4 11.42 13.62 11.24 12.6H6.76C6.58 13.62 5.68 14.4 4.6 14.4C3.52 14.4 2.62 13.62 2.44 12.6H2.4C1.08 12.6 0 11.52 0 10.2V9.4C0 8.96 0.36 8.6 0.8 8.6C1.24 8.6 1.6 8.96 1.6 9.4V10.2C1.6 10.64 1.96 11 2.4 11H2.76C3.16 10.4 3.84 10 4.6 10C5.36 10 6.06 10.4 6.44 11H9.8V2.4C9.8 1.96 9.44 1.6 9 1.6H0.8C0.36 1.6 0 1.24 0 0.8C0 0.36 0.36 0 0.8 0H9C10.32 0 11.4 1.08 11.4 2.4V2.8H12.2C12.82 2.8 13.42 3.04 13.88 3.48L16.68 6.2C17.14 6.64 17.4 7.28 17.4 7.92V11.04C17.74 11.12 18 11.44 18 11.82C18 12.26 17.64 12.62 17.2 12.62H15.56C15.38 13.62 14.48 14.4 13.4 14.4ZM13.4 11.6C13.06 11.6 12.8 11.86 12.8 12.2C12.8 12.54 13.06 12.8 13.4 12.8C13.74 12.8 14 12.54 14 12.2C14 11.86 13.74 11.6 13.4 11.6ZM4.6 11.6C4.26 11.6 4 11.86 4 12.2C4 12.54 4.26 12.8 4.6 12.8C4.94 12.8 5.2 12.54 5.2 12.2C5.2 11.86 4.94 11.6 4.6 11.6ZM15.24 11H15.8V8.2H11.4V11H11.56C11.96 10.4 12.64 10 13.4 10C14.16 10 14.86 10.4 15.24 11ZM11.4 6.6H14.8L12.76 4.62C12.6 4.48 12.42 4.4 12.2 4.4H11.4V6.6ZM5.8 7.4H0.8C0.36 7.4 0 7.04 0 6.6C0 6.16 0.36 5.8 0.8 5.8H5.8C6.24 5.8 6.6 6.16 6.6 6.6C6.6 7.04 6.24 7.4 5.8 7.4ZM7.4 4.4H0.8C0.36 4.4 0 4.04 0 3.6C0 3.16 0.36 2.8 0.8 2.8H7.4C7.84 2.8 8.2 3.16 8.2 3.6C8.2 4.04 7.84 4.4 7.4 4.4Z" fill="#092853"/>
</svg>
