<svg width="24" height="18" viewBox="0 0 24 18" fill="none" xmlns="http://www.w3.org/2000/svg">
<path d="M0.747044 10.2361L8.00901 17.4981C8.6782 18.1673 9.79352 18.1673 10.4627 17.4981C11.1319 16.8289 11.1319 15.7136 10.4627 15.0444L6.17493 10.7318L22.0372 10.7318C23.0038 10.7318 23.7722 9.96351 23.7722 8.9969C23.7722 8.03029 23.0038 7.26196 22.0372 7.26196L6.17493 7.26196L10.4627 2.97418C11.1319 2.30499 11.1319 1.18967 10.4627 0.520482C10.1157 0.173494 9.66959 0 9.22346 0C8.77734 0 8.33121 0.173494 7.98422 0.520482L0.747044 7.75766C0.424841 8.07986 0.226563 8.52599 0.226563 8.9969C0.226563 9.46781 0.400056 9.91394 0.747044 10.2361Z" fill="#092853"/>
</svg>
