<svg width="32" height="32" viewBox="0 0 32 32" fill="none" xmlns="http://www.w3.org/2000/svg">
<mask id="mask0_3070_618" style="mask-type:luminance" maskUnits="userSpaceOnUse" x="0" y="0" width="32" height="32">
<path d="M-1.39876e-06 0L0 32L32 32L32 -1.39876e-06L-1.39876e-06 0Z" fill="white"/>
</mask>
<g mask="url(#mask0_3070_618)">
<path d="M13.0538 24.7591L20.8323 16.9806C20.8323 16.9806 22.0768 15.9998 20.7046 14.8007L13.368 7.57609C13.0579 7.27113 12.6198 7.11017 12.1923 7.19177C11.9056 7.24617 11.6192 7.40681 11.4611 7.79177C11.0666 8.75337 11.6979 9.33033 11.6979 9.33033L18.3539 15.9636L11.6979 22.6436C11.6979 22.6436 10.9584 23.4343 11.4611 24.2036C11.9638 24.9729 12.9574 24.8554 13.0538 24.7591Z" fill="#5B5B5B"/>
</g>
</svg>
