<svg width="24" height="18" viewBox="0 0 24 18" fill="none" xmlns="http://www.w3.org/2000/svg">
<path d="M23.252 7.76386L15.99 0.501891C15.3208 -0.1673 14.2055 -0.1673 13.5363 0.501891C12.8671 1.17108 12.8671 2.2864 13.5363 2.95559L17.8241 7.26816L1.96179 7.26816C0.995183 7.26816 0.226851 8.03649 0.226851 9.0031C0.226851 9.96971 0.995183 10.738 1.96179 10.738L17.8241 10.738L13.5363 15.0258C12.8671 15.695 12.8671 16.8103 13.5363 17.4795C13.8833 17.8265 14.3294 18 14.7756 18C15.2217 18 15.6678 17.8265 16.0148 17.4795L23.252 10.2423C23.5742 9.92014 23.7725 9.47401 23.7725 9.0031C23.7725 8.53219 23.599 8.08606 23.252 7.76386Z" fill="white"/>
</svg>
