<svg width="14" height="23" viewBox="0 0 14 23" fill="none" xmlns="http://www.w3.org/2000/svg">
<path d="M2.00293 22.5019C1.45293 22.5019 0.982096 22.3061 0.59043 21.9144C0.198763 21.5228 0.00292969 21.0519 0.00292969 20.5019V2.50195C0.00292969 1.95195 0.198763 1.48112 0.59043 1.08945C0.982096 0.697786 1.45293 0.501953 2.00293 0.501953H12.0029C12.5529 0.501953 13.0238 0.697786 13.4154 1.08945C13.8071 1.48112 14.0029 1.95195 14.0029 2.50195V20.5019C14.0029 21.0519 13.8071 21.5228 13.4154 21.9144C13.0238 22.3061 12.5529 22.5019 12.0029 22.5019H2.00293ZM2.00293 19.5019V20.5019H12.0029V19.5019H2.00293ZM2.00293 17.5019H12.0029V5.50195H2.00293V17.5019ZM2.00293 3.50195H12.0029V2.50195H2.00293V3.50195Z" fill="#1C1B1F"/>
</svg>
