<svg width="15" height="14" viewBox="0 0 15 14" fill="none" xmlns="http://www.w3.org/2000/svg">
<path d="M14.1887 7.56274H11.9387C11.6404 7.56274 11.3542 7.68126 11.1432 7.89224C10.9322 8.10322 10.8137 8.38937 10.8137 8.68774V11.5002C10.8137 11.7986 10.9322 12.0848 11.1432 12.2957C11.3542 12.5067 11.6404 12.6252 11.9387 12.6252H13.0637C13.3621 12.6252 13.6482 12.5067 13.8592 12.2957C14.0702 12.0848 14.1887 11.7986 14.1887 11.5002V7.56274ZM14.1887 7.56274C14.1888 6.67156 14.0123 5.7892 13.6696 4.96656C13.3268 4.14393 12.8246 3.3973 12.1918 2.76977C11.5591 2.14223 10.8083 1.64621 9.98286 1.31031C9.15741 0.97442 8.27362 0.805308 7.38247 0.812734C6.49191 0.806241 5.60888 0.976041 4.78424 1.31235C3.9596 1.64866 3.20967 2.14483 2.57765 2.77228C1.94563 3.39972 1.44403 4.14603 1.10173 4.9682C0.75944 5.79037 0.583228 6.67216 0.583252 7.56274V11.5002C0.583252 11.7986 0.701778 12.0848 0.912757 12.2957C1.12374 12.5067 1.40988 12.6252 1.70825 12.6252H2.83325C3.13162 12.6252 3.41777 12.5067 3.62875 12.2957C3.83973 12.0848 3.95825 11.7986 3.95825 11.5002V8.68774C3.95825 8.38937 3.83973 8.10322 3.62875 7.89224C3.41777 7.68126 3.13162 7.56274 2.83325 7.56274H0.583252" stroke="#E87B1E" stroke-width="1.125" stroke-linecap="round" stroke-linejoin="round"/>
</svg>
