<svg width="24" height="24" viewBox="0 0 24 24" fill="none" xmlns="http://www.w3.org/2000/svg">
<g clip-path="url(#clip0_2877_2413)">
<path d="M12.0001 23.9998C18.6275 23.9998 24 18.6273 24 11.9999C24 5.37254 18.6275 0 12.0001 0C5.37275 0 0.000213623 5.37254 0.000213623 11.9999C0.000213623 18.6273 5.37275 23.9998 12.0001 23.9998Z" fill="white"/>
<path d="M7.97402 6H5.82731L10.5171 11.507L5 19H9.32017L12.7037 14.4558L16.5757 19H18.7236L13.7075 13.1102L19 6H14.5705L11.5121 10.154L7.97402 6ZM8.72763 17.68H7.53778L15.2165 7.25097H16.4931L8.72763 17.68Z" fill="#092853"/>
</g>
<defs>
<clipPath id="clip0_2877_2413">
<rect width="24" height="24" fill="white"/>
</clipPath>
</defs>
</svg>
