<svg width="40" height="40" viewBox="0 0 40 40" fill="none" xmlns="http://www.w3.org/2000/svg">
<path d="M5.86155 5.84814C3.06321 8.64552 1.15731 12.2099 0.384887 16.0906C-0.387538 19.9712 0.0082136 23.9937 1.52209 27.6494C3.03596 31.3051 5.59996 34.4298 8.8898 36.6282C12.1796 38.8266 16.0475 40 20.0043 40C23.9611 40 27.8289 38.8266 31.1188 36.6282C34.4086 34.4298 36.9726 31.3051 38.4865 27.6494C40.0004 23.9937 40.3961 19.9712 39.6237 16.0906C38.8513 12.2099 36.9454 8.64552 34.147 5.84814C30.393 2.10315 25.3069 0 20.0043 0C14.7017 0 9.61556 2.10315 5.86155 5.84814ZM31.2227 31.2093C28.6249 33.8017 25.2086 35.4131 21.556 35.7691C17.9033 36.1251 14.2401 35.2035 11.1907 33.1616C8.14122 31.1196 5.8941 28.0834 4.83217 24.5704C3.77024 21.0574 3.9592 17.2849 5.36685 13.8956C6.7745 10.5063 9.31375 7.70989 12.552 5.98283C15.7902 4.25578 19.5271 3.70492 23.1259 4.4241C26.7248 5.14329 29.9629 7.08803 32.2887 9.92698C34.6145 12.7659 35.884 16.3235 35.8809 19.9935C35.8848 22.0781 35.4751 24.1429 34.6756 26.0681C33.876 27.9933 32.7024 29.7408 31.2227 31.2093Z" fill="white"/>
<path d="M28.1112 13.1119C27.9189 12.9194 27.6906 12.7667 27.4393 12.6625C27.188 12.5583 26.9186 12.5047 26.6465 12.5047C26.3744 12.5047 26.105 12.5583 25.8537 12.6625C25.6024 12.7667 25.374 12.9194 25.1817 13.1119L20.6116 17.6821L16.0362 13.1067C15.6477 12.7182 15.1208 12.5 14.5715 12.5C14.0221 12.5 13.4952 12.7182 13.1067 13.1067C12.7182 13.4952 12.5 14.0221 12.5 14.5715C12.5 15.1208 12.7182 15.6477 13.1067 16.0362L17.6821 20.6116L13.1067 25.1869C12.7182 25.5754 12.5 26.1023 12.5 26.6517C12.5 27.201 12.7182 27.7279 13.1067 28.1164C13.4952 28.5049 14.0221 28.7231 14.5715 28.7231C15.1208 28.7231 15.6477 28.5049 16.0362 28.1164L20.6116 23.541L25.1869 28.1164C25.5754 28.5049 26.1023 28.7231 26.6517 28.7231C27.201 28.7231 27.7279 28.5049 28.1164 28.1164C28.5049 27.7279 28.7231 27.201 28.7231 26.6517C28.7231 26.1023 28.5049 25.5754 28.1164 25.1869L23.541 20.6116L28.1164 16.0362C28.5029 15.6474 28.7194 15.1212 28.7184 14.573C28.7174 14.0248 28.4991 13.4993 28.1112 13.1119Z" fill="white"/>
</svg>
