<svg width="24" height="24" viewBox="0 0 24 24" fill="none" xmlns="http://www.w3.org/2000/svg">
<mask id="mask0_413_5716" style="mask-type:luminance" maskUnits="userSpaceOnUse" x="0" y="0" width="24" height="24">
<path d="M-1.04907e-06 0L0 24L24 24L24 -1.04907e-06L-1.04907e-06 0Z" fill="white"/>
</mask>
<g mask="url(#mask0_413_5716)">
<path d="M9.78968 18.5706L15.6236 12.7366C15.6236 12.7366 16.557 12.001 15.5278 11.1018L10.0254 5.68329C9.7928 5.45457 9.46424 5.33385 9.1436 5.39505C8.92856 5.43585 8.71376 5.55633 8.5952 5.84505C8.29928 6.56625 8.7728 6.99897 8.7728 6.99897L13.7648 11.9739L8.7728 16.9839C8.7728 16.9839 8.21816 17.577 8.5952 18.1539C8.97224 18.7309 9.71744 18.6428 9.78968 18.5706Z" fill="white"/>
</g>
</svg>
