<svg width="24" height="24" viewBox="0 0 24 24" fill="none" xmlns="http://www.w3.org/2000/svg">
<circle cx="12" cy="12" r="12" fill="white"/>
<path d="M15.0928 12.3049C13.6989 11.56 11 10.1602 11 10.1602L14.5984 12.5787C14.5984 12.5787 13.9429 12.9423 15.0928 12.3049Z" fill="#F6F6F6"/>
<path d="M11.2962 17.6638C8.40094 17.6105 7.41207 17.5625 6.80425 17.4373C6.39302 17.3541 6.03566 17.1694 5.77364 16.9014C5.57112 16.6986 5.41007 16.3892 5.28512 15.9599C5.17794 15.6023 5.1362 15.3047 5.07669 14.5779C4.98558 12.9375 4.96387 11.5963 5.07669 10.0978C5.16976 9.27023 5.21489 8.28785 5.83315 7.71472C6.12507 7.44649 6.46466 7.27387 6.84599 7.20251C7.44169 7.08941 9.97958 7 12.6069 7C15.2283 7 17.7718 7.08941 18.3681 7.20251C18.8445 7.29192 19.2912 7.55987 19.5535 7.90538C20.1176 8.79272 20.1275 9.8961 20.1848 10.7592C20.2085 11.1704 20.2085 13.5055 20.1848 13.9167C20.0956 15.2807 20.024 15.7633 19.8215 16.2637C19.6963 16.5796 19.5894 16.7463 19.4043 16.931C19.1141 17.2153 18.7442 17.4044 18.3438 17.4731C15.8384 17.6615 13.7108 17.7024 11.2962 17.6638ZM15.1329 12.183C13.739 11.4381 12.4044 10.7473 11.0401 10.0323V14.3099C12.4757 13.5295 13.9892 12.8145 15.1389 12.1771L15.1329 12.183Z" fill="#092853"/>
</svg>
