<svg width="32" height="32" viewBox="0 0 32 32" fill="none" xmlns="http://www.w3.org/2000/svg">
<path d="M30.4158 14.4551C29.5446 14.4551 28.8317 15.1683 28.8317 16.04V25.1851C28.8317 27.198 27.1842 28.8305 25.1723 28.8305H6.82772C4.81584 28.8305 3.16832 27.198 3.16832 25.1851V16.04C3.16832 15.1683 2.45545 14.4551 1.58416 14.4551C0.712871 14.4551 0 15.1683 0 16.04V25.1851C0 28.9415 3.05742 32.0004 6.82772 32.0004H25.1723C28.9426 32.0004 32 28.9415 32 25.1851V16.04C32 15.1683 31.2871 14.4551 30.4158 14.4551Z" fill="#092853"/>
<path d="M14.9716 18.6706C15.2884 18.9718 15.6845 19.1303 16.0964 19.1303C16.5082 19.1303 16.9043 18.9718 17.2211 18.6706L25.0785 10.8252C25.6964 10.207 25.6964 9.20852 25.0785 8.59039C24.4607 7.97227 23.4627 7.97227 22.8449 8.59039L17.3003 14.1218L17.4271 1.60079C17.4271 0.729074 16.73 0.0158494 15.8587 0H15.8429C14.9716 0 14.2746 0.697375 14.2587 1.56909L14.132 13.3769L9.17359 8.4319C8.55577 7.81377 7.55775 7.81377 6.93993 8.4319C6.32211 9.05003 6.32211 10.0485 6.93993 10.6667L14.9716 18.6706Z" fill="#092853"/>
<path d="M14.9697 18.6706C15.2865 18.9718 15.6825 19.1303 16.0944 19.1303C16.5063 19.1303 16.9023 18.9718 17.2192 18.6706L25.0766 10.8252C25.6944 10.207 25.6944 9.20852 25.0766 8.59039C24.4588 7.97227 23.4607 7.97227 22.8429 8.59039L17.2984 14.1218L17.4251 1.60079C17.4251 0.729074 16.7281 0.0158494 15.8568 0H15.8409C14.9697 0 14.2726 0.697375 14.2568 1.56909L14.1301 13.3769L9.17164 8.4319C8.55382 7.81377 7.5558 7.81377 6.93798 8.4319C6.32015 9.05003 6.32015 10.0485 6.93798 10.6667L14.9697 18.6706Z" fill="#092853"/>
</svg>
