<svg width="100" height="58" viewBox="0 0 100 58" fill="none" xmlns="http://www.w3.org/2000/svg">
<path fill-rule="evenodd" clip-rule="evenodd" d="M0.146617 39.0398C-1.14 30.1953 6.27251 22.9814 13.3147 18.5335C22.9124 12.4713 35.1429 8.97127 46.4116 7.43984C52.6301 6.59468 58.9497 6.28381 65.2145 6.62955C70.6627 6.92983 76.165 7.72469 81.38 9.2811C89.3894 11.6712 98.5672 16.6109 99.8533 25.4509C101.14 34.2955 93.7274 41.5094 86.6851 45.9571C77.0872 52.0195 64.857 55.5195 53.5883 57.0507C47.3702 57.8957 41.0504 58.2069 34.7858 57.8612C29.3372 57.5606 23.8357 56.7659 18.6203 55.2095C10.6109 52.8199 1.43271 47.88 0.146617 39.0398ZM31.2194 13.3456L33.4725 29.3C35.2096 27.1166 37.9053 25.7134 40.9308 25.7132C45.1664 25.7134 48.7561 28.4637 49.9729 32.2556C50.0971 27.1855 54.2972 23.108 59.4544 23.108C63.4793 23.1078 66.921 25.5918 68.2974 29.0923C68.7337 24.3147 72.7979 20.5666 77.7426 20.5663C82.9779 20.5666 87.2272 24.7685 87.2275 29.9456C87.2272 35.1224 82.978 39.3243 77.7426 39.3243C73.7179 39.3243 70.2763 36.8407 68.8995 33.34C68.4632 38.1178 64.3989 41.8661 59.4542 41.8661C55.2191 41.8661 51.6295 39.1155 50.4127 35.3242C50.2879 40.3941 46.0879 44.4711 40.9308 44.4711C37.2437 44.4711 34.0458 42.3868 32.4765 39.3458C31.6169 43.1846 28.1836 46.3386 24.0444 46.9141C18.8473 47.6363 14.0464 44.0839 13.321 38.9798C13.3138 38.9291 13.3078 38.8783 13.3014 38.828C13.2492 38.4363 13.2222 38.0349 13.2217 37.625C13.2138 32.4492 17.4115 28.2544 22.5908 28.2619C26.494 28.2681 29.8467 30.6591 31.2654 34.0526L28.4564 14.2444C23.5729 15.9255 18.8908 18.0498 14.749 20.666C8.64522 24.5213 1.63743 30.9596 2.75914 38.6707C3.88138 46.3825 12.4575 50.6974 19.4115 52.7725C24.4055 54.2625 29.7312 55.027 34.951 55.3151C41.035 55.6506 47.1975 55.3457 53.2355 54.5253C64.0842 53.0511 76.0118 49.6601 85.2507 43.8248C91.3547 39.9695 98.3625 33.531 97.2408 25.8201C96.1189 18.1083 87.5422 13.7933 80.5885 11.7182C75.5948 10.2281 70.2687 9.46307 65.0495 9.17545C58.9651 8.83995 52.8029 9.14457 46.7644 9.9651C41.6904 10.6547 36.3802 11.7633 31.2194 13.3456ZM40.9308 28.6142C37.3146 28.6142 34.3793 31.5164 34.3796 35.0924C34.3796 38.6683 37.3146 41.5701 40.9308 41.5701C44.5471 41.5703 47.4819 38.6683 47.4819 35.0924C47.4819 31.5164 44.5471 28.6142 40.9308 28.6142ZM29.0842 37.5391L16.3474 39.3231C16.5789 40.2033 16.9824 41.0337 17.5177 41.7613C18.9241 43.4766 21.1998 44.4349 23.6436 44.0952C27.0703 43.619 29.9382 40.6941 29.9302 37.44L29.0849 37.5571L29.0842 37.5391ZM16.2254 36.4728L28.4055 34.767C27.341 32.6348 25.1372 31.1662 22.5952 31.1624C19.4127 31.1573 16.7674 33.4496 16.2254 36.4728ZM68.2965 29.1027L65.28 29.5218C64.1912 27.4363 61.9906 26.0088 59.4548 26.0087C55.8377 26.0088 52.9033 28.9109 52.9033 32.4872C52.9033 36.0632 55.8379 38.9651 59.4544 38.9649C62.6336 38.9651 65.2859 36.7217 65.8806 33.7496L68.896 33.3306C68.4842 32.2802 68.2579 31.139 68.2579 29.9455C68.2579 29.6611 68.2716 29.3801 68.2965 29.1027ZM77.7426 23.4674C74.1263 23.4673 71.1913 26.3696 71.1913 29.9456C71.1913 33.5215 74.1263 36.4235 77.7426 36.4235C81.359 36.4235 84.2938 33.5215 84.2938 29.9456C84.2938 26.3696 81.3588 23.4674 77.7426 23.4674ZM94.4192 4.28245H95.134C95.5698 4.28245 95.8477 4.2684 95.967 4.24012C96.0861 4.21219 96.1822 4.15529 96.2568 4.06908C96.3298 3.98338 96.3677 3.86854 96.3677 3.72629C96.3677 3.58925 96.3298 3.47909 96.2568 3.39582C96.1822 3.31273 96.0821 3.25583 95.9549 3.22478C95.8651 3.20257 95.6038 3.19269 95.173 3.19269H94.4192V4.28245ZM93.4592 6.76243V2.46514H95.4863C96.0047 2.46514 96.3754 2.50417 96.5978 2.58137C96.8198 2.65839 97.0027 2.79283 97.1448 2.98261C97.2885 3.17378 97.3589 3.40207 97.3589 3.66731C97.3589 4.00333 97.251 4.27447 97.0327 4.47969C96.8131 4.68473 96.5033 4.81345 96.1024 4.86549C96.3082 4.97548 96.4789 5.095 96.6127 5.22476C96.748 5.35469 96.9324 5.58801 97.1654 5.92421L97.7432 6.76243H96.5978L95.8994 5.82706C95.6486 5.48983 95.4781 5.27767 95.3872 5.19301C95.2981 5.10767 95.2018 5.04955 95.1014 5.01676C95.0012 4.98432 94.8404 4.96871 94.6183 4.96871H94.4192V6.76243H93.4592ZM90.6456 5.22459C90.2855 2.72344 92.0824 0.39629 94.6458 0.0448317C97.209 -0.306626 99.5939 1.44702 99.954 3.94816C100.314 6.44948 98.5172 8.77629 95.9538 9.12775C93.3908 9.4792 91.0058 7.72573 90.6456 5.22459ZM91.557 5.09951C91.2675 3.08825 92.7127 1.21699 94.7739 0.934579C96.835 0.651644 98.7527 2.06199 99.0423 4.07289C99.3319 6.08432 97.8871 7.95541 95.8258 8.23835C93.7646 8.52076 91.847 7.11076 91.557 5.09951Z" fill="#092853"/>
</svg>
