<svg width="365" height="47" viewBox="0 0 365 47" fill="none" xmlns="http://www.w3.org/2000/svg">
<path d="M20.76 19.184C29.272 22.512 33.56 27.184 33.56 33.2C33.56 37.04 32.024 40.24 29.08 42.8C26.072 45.36 22.168 46.64 17.368 46.64C15.256 46.64 13.208 46.448 11.288 45.936C9.368 45.488 7.768 44.912 6.488 44.272C5.208 43.632 4.056 42.992 3.096 42.352C2.072 41.712 1.368 41.136 0.92 40.624L0.28 39.92L6.04 33.712C6.168 33.84 6.36 34.032 6.616 34.288C6.872 34.544 7.384 34.928 8.216 35.504C8.984 36.08 9.816 36.592 10.712 36.976C11.608 37.424 12.696 37.808 13.976 38.192C15.256 38.576 16.6 38.704 17.88 38.704C19.544 38.704 20.888 38.32 21.976 37.488C23 36.656 23.576 35.568 23.576 34.288C23.576 32.816 22.808 31.472 21.4 30.32C19.928 29.168 17.24 27.76 13.4 26.16C6.232 23.408 2.712 19.12 2.712 13.296C2.712 9.584 4.12 6.576 7 4.144C9.816 1.776 13.592 0.559998 18.264 0.559998C20.056 0.559998 21.848 0.815998 23.576 1.2C25.24 1.584 26.648 2.096 27.8 2.608C28.952 3.184 29.976 3.76 30.872 4.272C31.768 4.848 32.408 5.296 32.792 5.68L33.432 6.32L27.672 12.528C27.352 12.272 26.968 11.888 26.456 11.44C25.944 10.992 24.856 10.416 23.256 9.648C21.656 8.88 20.056 8.496 18.392 8.496C16.6 8.496 15.192 8.944 14.168 9.712C13.144 10.544 12.696 11.504 12.696 12.528C12.696 13.872 13.208 15.024 14.36 15.984C15.512 16.944 17.624 18.032 20.76 19.184ZM70.8695 46V27.12H51.3495V46H41.5575V1.2H51.3495V18.416H70.8695V1.2H80.5975V46H70.8695ZM112.12 37.68C116.024 37.68 119.288 36.336 121.912 33.648C124.536 30.96 125.88 27.632 125.88 23.6C125.88 19.632 124.536 16.304 121.912 13.616C119.288 10.928 116.024 9.584 112.12 9.584C108.152 9.584 104.824 10.928 102.264 13.616C99.6395 16.304 98.3595 19.632 98.3595 23.6C98.3595 27.632 99.6395 30.96 102.264 33.648C104.824 36.336 108.152 37.68 112.12 37.68ZM112.248 0.559998C118.904 0.559998 124.408 2.8 128.888 7.152C133.368 11.568 135.608 17.008 135.608 23.472C135.608 30 133.304 35.44 128.76 39.92C124.152 44.4 118.583 46.64 111.928 46.64C105.272 46.64 99.7035 44.464 95.2235 40.112C90.7435 35.76 88.5675 30.32 88.5675 23.792C88.5675 17.328 90.8075 11.824 95.4155 7.344C99.9595 2.864 105.592 0.559998 112.248 0.559998ZM162.052 9.456H153.412V23.792H162.052C164.42 23.792 166.34 23.152 167.812 21.808C169.284 20.464 170.052 18.736 170.052 16.624C170.052 14.576 169.284 12.848 167.812 11.504C166.34 10.16 164.42 9.456 162.052 9.456ZM143.62 46V1.2H163.012C168.004 1.2 172.1 2.608 175.172 5.424C178.244 8.24 179.78 11.888 179.78 16.368C179.78 20.848 178.18 24.56 174.98 27.44C171.78 30.384 167.684 31.792 162.692 31.792H153.412V46H143.62ZM241.023 46L209.663 4.784V46H207.103V1.2H209.983L241.023 42.032V1.2H243.583V46H241.023ZM254.465 23.664C254.465 17.264 256.705 11.76 261.185 7.28C265.665 2.8 271.105 0.559998 277.569 0.559998C283.969 0.559998 289.409 2.8 293.889 7.216C298.305 11.696 300.545 17.136 300.545 23.536C300.545 30 298.305 35.44 293.825 39.92C289.345 44.4 283.841 46.64 277.441 46.64C270.977 46.64 265.537 44.464 261.121 39.984C256.641 35.568 254.465 30.128 254.465 23.664ZM257.025 23.6C257.025 29.488 258.945 34.352 262.913 38.32C266.881 42.288 271.745 44.272 277.505 44.272C283.265 44.272 288.065 42.288 292.033 38.32C296.001 34.352 297.985 29.488 297.985 23.6C297.985 17.776 296.001 12.848 292.033 8.88C288.065 4.912 283.265 2.928 277.505 2.928C271.745 2.928 266.881 4.912 262.913 8.88C258.945 12.848 257.025 17.776 257.025 23.6ZM319.125 46L303.765 1.2H306.517L320.405 42.16L333.141 1.2H334.997L347.669 42.16L361.621 1.2H364.245L348.885 46H346.453L333.973 6.448L321.557 46H319.125Z" fill="white"/>
</svg>
