<svg width="258" height="190" viewBox="0 0 258 190" fill="none" xmlns="http://www.w3.org/2000/svg">
<path fill-rule="evenodd" clip-rule="evenodd" d="M175.254 184.94H179.425L184.802 164.902H180.631L175.254 184.94ZM183.541 184.94H187.712L191.665 170.225H187.495L183.541 184.94ZM187.821 168.607H192.21L193.229 164.902H188.833L187.821 168.607ZM195.86 185.049H199.649L209.337 170.225H204.862L199.019 180.03L198.357 170.225H194.077L195.86 185.049Z" fill="#E87B1E"/>
<path fill-rule="evenodd" clip-rule="evenodd" d="M42.9062 181.834C44.843 181.834 46.5282 181.196 47.6445 180.086C48.4447 179.266 48.9413 178.214 48.9413 177.006C48.9413 174.96 47.5543 173.843 44.8232 172.797C42.3189 171.817 41.2919 171.158 41.2919 169.861C41.2919 168.402 42.7258 167.059 45.1132 167.059C46.986 167.059 48.4447 167.763 49.6003 169.041L50.9237 167.853C49.7167 166.44 47.76 165.439 45.276 165.439C43.3194 165.439 41.6992 166.079 40.6347 167.15C39.8147 167.943 39.4006 168.97 39.4006 170.06C39.4006 172.133 40.835 173.159 43.7718 174.321C46.2314 175.276 47.0496 176.006 47.0496 177.239C47.0496 178.968 45.3202 180.221 43.023 180.221C40.6794 180.221 39.1039 179.375 37.7611 177.736L36.3926 178.807C37.7611 180.698 39.9685 181.834 42.9062 181.834ZM51.1758 181.609H52.9245L56.0932 169.835H54.3377L51.1758 181.609ZM54.906 167.259H56.9127L57.4364 165.329H55.4292L54.906 167.259ZM57.0223 181.609H58.7796L60.5541 174.96C61.1481 172.772 62.8977 171.158 64.6271 171.158C66.157 171.158 67.0867 172.088 67.0867 173.617C67.0867 174.004 67.0222 174.547 66.9062 174.934L65.1305 181.609H66.8859L68.6356 174.96C69.2301 172.772 70.9856 171.158 72.7144 171.158C74.2385 171.158 75.1479 172.088 75.1479 173.617C75.1479 174.004 75.0843 174.547 74.9873 174.934L73.1935 181.609H74.9422L76.6986 175.05C76.8343 174.437 77.0143 173.772 77.0143 173.23C77.0143 171.042 75.5358 169.583 73.4185 169.583C71.3211 169.583 69.7271 170.635 68.6816 172.249C68.3649 170.861 67.3181 169.583 65.3375 169.583C63.6068 169.583 62.49 170.538 61.4183 171.746L61.9153 169.835H60.1666L57.0223 181.609ZM85.5284 181.88C87.1679 181.88 88.743 181.176 89.9505 179.97C91.2662 178.646 92.1313 176.736 92.1313 174.573C92.1313 171.565 90.1295 169.583 87.4647 169.583C85.5735 169.583 84.1409 170.564 83.0043 171.862L83.5455 169.835H81.7968L77.6728 185.25H79.4279L81.1121 178.968C81.7716 180.518 83.1134 181.88 85.5284 181.88ZM85.3732 180.331C83.2113 180.331 81.7251 178.717 81.7251 176.664C81.7251 175.166 82.436 173.753 83.4824 172.708C84.4368 171.727 85.7156 171.132 86.9677 171.132C88.9501 171.132 90.2919 172.545 90.2919 174.734C90.2919 176.374 89.6528 177.897 88.6072 178.968C87.7611 179.789 86.6249 180.331 85.3732 180.331ZM93.8232 181.609H95.5719L100.038 164.987H98.2832L93.8232 181.609ZM99.8326 181.609H101.582L104.75 169.835H102.994L99.8326 181.609ZM103.562 167.259H105.57L106.094 165.329H104.086L103.562 167.259ZM106.339 181.609H108.094L110.851 171.384H114.672L115.104 169.835H111.258L111.555 168.699C111.967 167.15 112.807 166.466 113.923 166.466C114.607 166.466 115.175 166.627 115.859 166.943L116.267 165.439C115.654 165.123 114.833 164.942 113.923 164.942C112.807 164.942 111.877 165.284 111.167 165.988C110.573 166.582 110.167 167.356 109.87 168.466L109.509 169.835H107.887L107.481 171.384H109.095L106.339 181.609ZM117.958 181.583C116.77 183.248 115.886 183.771 114.879 183.771C114.311 183.771 113.518 183.52 113.085 183.177L112.123 184.5C112.878 185.023 113.697 185.32 114.698 185.32C116.454 185.32 117.86 184.429 119.527 181.996L127.588 169.835H125.607L119.275 179.653L117.635 169.835H115.815L117.958 181.583ZM127.452 181.609H129.201L132.371 169.835H130.616L127.452 181.609ZM131.184 167.259H133.191L133.714 165.329H131.707L131.184 167.259ZM133.301 181.609H135.056L136.832 174.96C137.445 172.727 139.265 171.158 141.086 171.158C142.726 171.158 143.732 172.068 143.732 173.617C143.732 174.004 143.661 174.547 143.545 174.934L141.77 181.609H143.525L145.256 175.05C145.417 174.437 145.553 173.772 145.553 173.23C145.553 170.997 144.075 169.583 141.796 169.583C139.996 169.583 138.768 170.538 137.696 171.746L138.194 169.835H136.444L133.301 181.609ZM152.344 185.301C154.344 185.301 155.804 184.726 156.893 183.636C157.74 182.79 158.308 181.745 158.812 179.924L161.496 169.835H159.741L159.057 172.41C158.398 170.997 157.262 169.583 154.732 169.583C153.047 169.583 151.337 170.313 150.109 171.545C148.928 172.727 148.128 174.347 148.128 176.258C148.128 179.078 150.452 180.698 152.912 180.698C154.848 180.698 156.236 179.789 157.417 178.581L157.1 179.763C156.758 180.97 156.352 181.88 155.623 182.59C154.912 183.319 153.796 183.797 152.317 183.797C150.517 183.797 148.928 183.087 147.669 182.022L146.58 183.248C148.037 184.526 150.18 185.301 152.344 185.301ZM153.409 179.194C151.614 179.194 149.975 178.123 149.975 176.031C149.975 174.638 150.568 173.437 151.432 172.566C152.344 171.655 153.551 171.132 154.821 171.132C157.074 171.132 158.444 172.727 158.444 174.456C158.444 175.618 157.894 176.761 157.011 177.645C156.074 178.581 154.777 179.194 153.409 179.194Z" fill="white"/>
<path fill-rule="evenodd" clip-rule="evenodd" d="M222.57 179.004C223.037 177.875 223.309 176.692 223.309 175.65C223.309 172.381 221.115 169.914 217.294 169.914C214.827 169.914 212.741 170.903 211.232 172.412C209.559 174.085 208.57 176.42 208.57 178.699C208.57 182.762 211.146 185.229 215.379 185.229C217.877 185.229 219.714 184.38 221.029 183.283L219.107 180.699C217.901 181.555 216.943 181.882 215.846 181.882C213.645 181.882 212.601 180.731 212.469 179.004H222.57ZM214.033 174.498C214.796 173.727 215.816 173.26 216.967 173.26C218.671 173.26 219.387 174.225 219.387 175.431C219.387 175.789 219.332 176.117 219.247 176.388H212.851C213.123 175.65 213.512 175.019 214.033 174.498ZM230.063 185.229C233.573 185.229 236.102 183.251 236.102 180.046C236.102 177.734 233.985 176.724 232.063 175.867C230.826 175.323 230.118 174.91 230.118 174.334C230.118 173.564 230.717 173.097 231.736 173.097C232.942 173.097 234.149 173.533 235.58 174.661L237.829 172.023C236.623 170.957 234.421 169.914 232.04 169.914C228.382 169.914 226.134 172.14 226.134 175.073C226.134 177.431 228.111 178.396 230.413 179.385C231.433 179.82 232.117 180.209 232.117 180.754C232.117 181.579 231.456 182.046 230.359 182.046C229.044 182.046 227.394 181.609 225.861 180.069L223.441 182.567C225.176 184.38 227.837 185.229 230.063 185.229ZM238.156 184.902H240.685L241.456 182.022H238.958L238.156 184.902Z" fill="#E87B1E"/>
<path fill-rule="evenodd" clip-rule="evenodd" d="M0.376968 101.508C-2.93105 78.5112 16.1272 59.7542 34.2334 48.1892C58.91 32.4268 90.356 23.3263 119.329 19.3445C135.317 17.1469 151.566 16.3386 167.673 17.2376C181.681 18.0184 195.828 20.0851 209.236 24.1319C229.829 30.3465 253.426 43.1902 256.733 66.1754C260.041 89.1723 240.983 107.929 222.876 119.494C198.199 135.257 166.754 144.357 137.781 148.339C121.793 150.536 105.545 151.345 89.4376 150.446C75.4288 149.664 61.2839 147.598 47.8745 143.551C27.2818 137.338 3.68363 124.494 0.376968 101.508ZM80.2682 34.7001L86.0611 76.1833C90.5274 70.5064 97.4582 66.8578 105.237 66.8574C116.127 66.8578 125.357 74.0088 128.485 83.8683C128.805 70.6854 139.604 60.0835 152.863 60.0835C163.212 60.083 172.06 66.5416 175.599 75.6434C176.721 63.221 187.171 53.4756 199.884 53.4747C213.344 53.4756 224.27 64.4009 224.271 77.8621C224.27 91.3224 213.345 102.248 199.884 102.248C189.536 102.248 180.687 95.7901 177.147 86.6879C176.026 99.1107 165.576 108.857 152.863 108.857C141.974 108.857 132.744 101.705 129.616 91.847C129.295 105.029 118.497 115.63 105.237 115.63C95.7573 115.63 87.5351 110.211 83.5004 102.304C81.2903 112.285 72.4627 120.486 61.8206 121.982C48.4582 123.86 36.1147 114.623 34.2496 101.352C34.2311 101.22 34.2158 101.088 34.1991 100.957C34.0651 99.9389 33.9957 98.8951 33.9943 97.8293C33.974 84.3717 44.7668 73.4648 58.0832 73.4842C68.1187 73.5005 76.7387 79.7173 80.3864 88.5408L73.1641 37.037C60.6082 41.4081 48.5701 46.9317 37.9212 53.734C22.2277 63.7582 4.21001 80.4985 7.09403 100.548C9.97941 120.6 32.0295 131.819 49.9088 137.215C62.7489 141.089 76.4419 143.077 89.8625 143.826C105.505 144.698 121.35 143.905 136.874 141.772C164.767 137.939 195.434 129.122 219.188 113.949C234.882 103.925 252.9 87.1845 250.016 67.1352C247.131 47.0837 225.08 35.8642 207.201 30.4688C194.362 26.5942 180.668 24.6051 167.249 23.8572C151.605 22.9849 135.762 23.7769 120.236 25.9104C107.19 27.7034 93.5372 30.586 80.2682 34.7001ZM105.237 74.4003C95.9395 74.4003 88.3925 81.9464 88.3934 91.2444C88.3934 100.542 95.9395 108.087 105.237 108.087C114.535 108.088 122.081 100.542 122.081 91.2444C122.081 81.9464 114.535 74.4003 105.237 74.4003ZM74.7784 97.606L42.0307 102.245C42.6261 104.533 43.6635 106.692 45.0397 108.584C48.6558 113.044 54.5068 115.536 60.79 114.653C69.6004 113.414 76.9742 105.809 76.9534 97.3485L74.7802 97.6529L74.7784 97.606ZM41.7172 94.8334L73.0333 90.3982C70.2963 84.8543 64.6302 81.0357 58.0945 81.0258C49.9119 81.0127 43.1105 86.9729 41.7172 94.8334ZM175.597 75.6705L167.841 76.7602C165.042 71.3377 159.384 67.626 152.864 67.6255C143.564 67.626 136.02 75.1716 136.02 84.4705C136.02 93.7685 143.565 101.314 152.863 101.313C161.037 101.314 167.857 95.4807 169.386 87.7528L177.138 86.6635C176.08 83.9324 175.498 80.9649 175.498 77.8617C175.498 77.1224 175.533 76.3917 175.597 75.6705ZM199.884 61.018C190.586 61.0176 183.04 68.5641 183.04 77.8621C183.04 87.1597 190.586 94.7053 199.884 94.7053C209.182 94.7053 216.728 87.1597 216.728 77.8621C216.728 68.5641 209.182 61.018 199.884 61.018ZM242.761 11.1349H244.599C245.719 11.1349 246.434 11.0983 246.741 11.0248C247.047 10.9522 247.294 10.8042 247.486 10.5801C247.673 10.3572 247.771 10.0587 247.771 9.68879C247.771 9.33246 247.673 9.04604 247.486 8.82954C247.294 8.61348 247.037 8.46554 246.71 8.3848C246.479 8.32706 245.807 8.30136 244.699 8.30136H242.761V11.1349ZM240.293 17.5831V6.40964H245.505C246.838 6.40964 247.791 6.51113 248.363 6.71185C248.933 6.91212 249.404 7.26168 249.769 7.75513C250.138 8.25219 250.319 8.84577 250.319 9.53543C250.319 10.4091 250.042 11.1141 249.481 11.6477C248.916 12.1809 248.12 12.5155 247.089 12.6509C247.618 12.9368 248.057 13.2476 248.401 13.585C248.749 13.9228 249.223 14.5295 249.822 15.4036L251.308 17.5831H248.363L246.567 15.151C245.922 14.2742 245.484 13.7226 245.25 13.5024C245.021 13.2805 244.773 13.1294 244.515 13.0442C244.258 12.9598 243.844 12.9192 243.273 12.9192H242.761V17.5831H240.293ZM233.059 13.5845C232.133 7.08126 236.753 1.0304 243.344 0.116568C249.934 -0.797263 256.066 3.76242 256.992 10.2657C257.918 16.7694 253.298 22.8194 246.707 23.7332C240.117 24.647 233.985 20.0878 233.059 13.5845ZM235.402 13.2593C234.658 8.02982 238.374 3.16433 243.673 2.43001C248.972 1.69435 253.903 5.3614 254.648 10.59C255.392 15.8199 251.677 20.685 246.378 21.4207C241.078 22.155 236.148 18.4888 235.402 13.2593Z" fill="white"/>
</svg>
