<svg width="38" height="28" viewBox="0 0 38 28" fill="none" xmlns="http://www.w3.org/2000/svg">
<path d="M17.3337 27.3327H9.83366C7.30588 27.3327 5.14616 26.4577 3.35449 24.7077C1.56283 22.9577 0.666992 20.8188 0.666992 18.291C0.666992 16.1243 1.31977 14.1938 2.62533 12.4993C3.93088 10.8049 5.63921 9.72157 7.75033 9.24935C8.44477 6.69379 9.83366 4.62435 11.917 3.04102C14.0003 1.45768 16.3614 0.666016 19.0003 0.666016C22.2503 0.666016 25.0073 1.79796 27.2712 4.06185C29.535 6.32574 30.667 9.08268 30.667 12.3327C32.5837 12.5549 34.1739 13.3813 35.4378 14.8118C36.7017 16.2424 37.3337 17.916 37.3337 19.8327C37.3337 21.916 36.6045 23.6868 35.1462 25.1452C33.6878 26.6035 31.917 27.3327 29.8337 27.3327H20.667V15.416L23.3337 17.9993L25.667 15.666L19.0003 8.99935L12.3337 15.666L14.667 17.9993L17.3337 15.416V27.3327Z" fill="#092853"/>
</svg>
