<svg width="18" height="18" viewBox="0 0 18 18" fill="none" xmlns="http://www.w3.org/2000/svg">
<path fill-rule="evenodd" clip-rule="evenodd" d="M7.4744 15.0211C3.3464 15.0211 0 11.6585 0 7.51053C0 3.36258 3.3464 0 7.4744 0C11.6024 0 14.9488 3.36258 14.9488 7.51053C14.9488 11.6585 11.6024 15.0211 7.4744 15.0211ZM7.4744 13.1916C10.5969 13.1916 13.1281 10.6481 13.1281 7.51053C13.1281 4.37298 10.5969 1.82949 7.4744 1.82949C4.35194 1.82949 1.82069 4.37298 1.82069 7.51053C1.82069 10.6481 4.35194 13.1916 7.4744 13.1916Z" fill="#092853"/>
<path fill-rule="evenodd" clip-rule="evenodd" d="M13.4571 12.1311L17.5659 16.2597C17.8054 16.5004 17.8054 16.8906 17.5659 17.1312L17.1351 17.5641C16.8956 17.8048 16.5073 17.8048 16.2678 17.5641L11.7253 12.9997L12.5898 12.1311C12.8293 11.8904 13.2176 11.8904 13.4571 12.1311Z" fill="#092853"/>
</svg>
