<svg width="15" height="12" viewBox="0 0 15 12" fill="none" xmlns="http://www.w3.org/2000/svg">
<path d="M14.1905 5.26498L9.87257 0.947022C9.47467 0.549122 8.8115 0.549122 8.4136 0.947022C8.0157 1.34492 8.0157 2.00809 8.4136 2.40599L10.9631 4.97024L1.5314 4.97024C0.956651 4.97024 0.499802 5.42709 0.499802 6.00183C0.499802 6.57658 0.956651 7.03342 1.5314 7.03342L10.9631 7.03342L8.4136 9.58293C8.0157 9.98083 8.0157 10.644 8.4136 11.0419C8.61992 11.2482 8.88518 11.3514 9.15045 11.3514C9.41572 11.3514 9.68098 11.2482 9.8873 11.0419L14.1905 6.73868C14.3821 6.5471 14.5 6.28184 14.5 6.00183C14.5 5.72183 14.3968 5.45656 14.1905 5.26498Z" fill="white"/>
</svg>
