<svg width="60" height="51" viewBox="0 0 60 51" fill="none" xmlns="http://www.w3.org/2000/svg">
<path fill-rule="evenodd" clip-rule="evenodd" d="M18.7443 1.15043C19.0163 0.463459 19.7808 0 20.6419 0H39.3593C40.2205 0 40.985 0.463474 41.2569 1.15046L59.8976 48.2338C60.1006 48.7465 59.9982 49.31 59.6223 49.7484C59.2463 50.1867 58.6428 50.4464 58 50.4464H2.00001C1.35727 50.4464 0.753687 50.1867 0.377763 49.7484C0.00183871 49.31 -0.100615 48.7465 0.102397 48.2337L18.7443 1.15043ZM22.084 3.36309L4.7737 47.0833H55.2264L37.9172 3.36309H22.084Z" fill="#092853"/>
<path fill-rule="evenodd" clip-rule="evenodd" d="M30.6777 4.2373C31.7823 4.2373 32.6777 4.99016 32.6777 5.91885V8.41939C32.6777 9.34808 31.7823 10.1009 30.6777 10.1009C29.5732 10.1009 28.6777 9.34808 28.6777 8.41939V5.91885C28.6777 4.99016 29.5732 4.2373 30.6777 4.2373Z" fill="#092853"/>
<path fill-rule="evenodd" clip-rule="evenodd" d="M30.6777 12.9229C31.7823 12.9229 32.6777 13.6757 32.6777 14.6044V23.1562C32.6777 24.0849 31.7823 24.8377 30.6777 24.8377C29.5732 24.8377 28.6777 24.0849 28.6777 23.1562V14.6044C28.6777 13.6757 29.5732 12.9229 30.6777 12.9229Z" fill="#092853"/>
<path fill-rule="evenodd" clip-rule="evenodd" d="M30.6777 27.7891C31.7823 27.7891 32.6777 28.5419 32.6777 29.4706V43.1565C32.6777 44.0852 31.7823 44.838 30.6777 44.838C29.5732 44.838 28.6777 44.0852 28.6777 43.1565V29.4706C28.6777 28.5419 29.5732 27.7891 30.6777 27.7891Z" fill="#092853"/>
</svg>
