<svg width="58" height="52" viewBox="0 0 58 52" fill="none" xmlns="http://www.w3.org/2000/svg">
<path d="M47.6096 5.20218L47.6095 5.20209C47.0184 4.17285 45.9333 3.48629 44.6975 3.48629C42.8377 3.48629 41.3152 5.04356 41.3152 6.97654C41.3152 8.17344 41.8999 9.2279 42.7871 9.85712L47.6096 5.20218ZM47.6096 5.20218C47.7662 5.47451 48.026 5.67222 48.3306 5.74449M47.6096 5.20218L52.1106 7.8074M52.1106 7.8074L52.11 7.807C51.8009 7.5976 51.6123 7.24797 51.6018 6.87177M52.1106 7.8074C52.421 8.01637 52.8125 8.05749 53.1584 7.91574L53.1591 7.91546M52.1106 7.8074L53.1591 7.91546M51.6018 6.87177L51.8517 6.86484L51.6018 6.8718C51.6018 6.87179 51.6018 6.87178 51.6018 6.87177ZM51.6018 6.87177C51.5777 6.0057 50.8884 5.32151 50.058 5.32151C49.7472 5.32151 49.4574 5.41689 49.2139 5.58135M49.2139 5.58135C49.2141 5.58127 49.2142 5.58119 49.2143 5.58112L49.0736 5.37446L49.2136 5.58157C49.2137 5.5815 49.2138 5.58142 49.2139 5.58135ZM49.2139 5.58135C48.955 5.75747 48.6349 5.81745 48.3306 5.74449M48.3306 5.74449C48.3308 5.74452 48.3309 5.74456 48.331 5.74459L48.3887 5.50133L48.3303 5.74442C48.3304 5.74444 48.3305 5.74447 48.3306 5.74449ZM53.1591 7.91546C53.3349 7.84283 53.5265 7.80327 53.728 7.80327M53.1591 7.91546L53.728 7.80327M41.4955 11.7653L41.4954 11.7652C40.0152 10.7163 39.0469 8.96049 39.0469 6.97654C39.0469 3.77603 41.5717 1.16504 44.6975 1.16504C46.4002 1.16504 47.9273 1.94163 48.9619 3.1654C49.3095 3.0579 49.6776 3.00026 50.058 3.00026C51.6736 3.00026 53.0498 4.0339 53.6063 5.48402C53.6468 5.48268 53.6873 5.48202 53.728 5.48202C55.8394 5.48202 57.5407 7.24559 57.5407 9.40184C57.5407 10.1314 57.3459 10.8162 57.0061 11.4023L41.4955 11.7653ZM41.4955 11.7653C42.0142 12.1326 42.7241 11.9956 43.0775 11.4663M41.4955 11.7653L43.0775 11.4663M53.728 7.80327C54.5733 7.80327 55.2723 8.51235 55.2723 9.40184M53.728 7.80327L55.2723 9.40184M55.2723 9.40184C55.2723 9.70131 55.1929 9.98055 55.0548 10.2194M55.2723 9.40184L55.0548 10.2194M55.0548 10.2194C54.7386 10.7655 54.9095 11.4764 55.4469 11.8064C55.9887 12.1392 56.6872 11.9533 57.0059 11.4026L55.0548 10.2194ZM43.0775 11.4663C43.4284 10.9417 43.3015 10.2215 42.7873 9.85721L43.0775 11.4663Z" fill="#092853" stroke="#092853" stroke-width="0.5"/>
<path d="M12.8208 20.04L12.8207 20.0401C11.948 20.4778 10.9683 20.7226 9.93247 20.7226C6.28427 20.7226 3.30939 17.6695 3.30939 13.894C3.30939 10.1179 6.28426 7.06539 9.93247 7.06539C11.8287 7.06539 13.5414 7.88872 14.7501 9.2103L14.7503 9.21045C15.1798 9.67929 15.9019 9.70263 16.3589 9.25926L16.3591 9.25911C16.8111 8.81981 16.8315 8.08904 16.4066 7.62363L16.4064 7.62341C14.7858 5.85255 12.4849 4.74414 9.93247 4.74414C5.0182 4.74414 1.04102 8.851 1.04102 13.894C1.04102 18.937 5.0182 23.0439 9.93247 23.0439C11.3253 23.0439 12.6444 22.7131 13.8187 22.125L13.819 22.1248C14.3825 21.8417 14.6103 21.1482 14.3408 20.577L14.3407 20.5768C14.0692 20.0022 13.3886 19.7555 12.8208 20.04Z" fill="#092853" stroke="#092853" stroke-width="0.5"/>
<path d="M8.79883 10.8618V26.4463C8.79883 27.08 9.29998 27.6069 9.93301 27.6069C10.566 27.6069 11.0672 27.08 11.0672 26.4463V10.8618C11.0672 10.2281 10.566 9.70117 9.93301 9.70117C9.29998 9.70117 8.79883 10.2281 8.79883 10.8618Z" fill="#092853" stroke="#092853" stroke-width="0.5"/>
<path d="M5.73402 13.636L5.734 13.636C5.2944 13.1832 5.2944 12.4522 5.734 11.9994C6.17703 11.5432 6.89994 11.5432 7.34297 11.9994L10.7388 15.4968C11.1778 15.949 11.1778 16.6806 10.7388 17.1328C10.2954 17.5895 9.57304 17.5898 9.12988 17.1328L5.73402 13.636ZM5.73402 13.636L9.12972 17.1326L5.73402 13.636Z" fill="#092853" stroke="#092853" stroke-width="0.5"/>
<path d="M24.6439 1.16504C18.5454 1.16504 13.6074 6.26145 13.6074 12.5241C13.6074 18.7867 18.5454 23.8831 24.6439 23.8831C30.7424 23.8831 35.6804 18.7867 35.6804 12.5241C35.6804 6.26145 30.7424 1.16504 24.6439 1.16504ZM24.6439 3.48629C29.4763 3.48629 33.412 7.52893 33.412 12.5241C33.412 17.5192 29.4763 21.5619 24.6439 21.5619C19.8115 21.5619 15.8758 17.5192 15.8758 12.5241C15.8758 7.52893 19.8115 3.48629 24.6439 3.48629Z" fill="#092853" stroke="#092853" stroke-width="0.5"/>
<path d="M23.5117 8.65379V32.8413C23.5117 33.4743 24.0128 34.0019 24.6459 34.0019C25.279 34.0019 25.7801 33.4743 25.7801 32.8413V8.65379C25.7801 8.02005 25.2789 7.49316 24.6459 7.49316C24.0129 7.49316 23.5117 8.02005 23.5117 8.65379Z" fill="#092853" stroke="#092853" stroke-width="0.5"/>
<path d="M25.4505 16.4343L25.4504 16.4345C25.0068 16.8905 24.2847 16.8905 23.8411 16.4345L23.8408 16.4341C23.402 15.9814 23.402 15.2506 23.8408 14.7979L23.841 14.7977L28.1757 10.334C28.6187 9.87696 29.3418 9.87694 29.7849 10.334C29.7849 10.334 29.7849 10.334 29.785 10.334L29.6055 10.508C29.9509 10.8632 29.9509 11.4405 29.6055 11.7956L25.4505 16.4343ZM25.4505 16.4343L29.7847 11.97C29.7847 11.9699 29.7847 11.9699 29.7848 11.9699L25.4505 16.4343Z" fill="#092853" stroke="#092853" stroke-width="0.5"/>
<path d="M25.4475 14.7979L25.4474 14.7977L21.1126 10.334C21.1126 10.334 21.1126 10.334 21.1126 10.3339C20.6695 9.87699 19.9466 9.87697 19.5035 10.3339C19.0639 10.786 19.0639 11.5177 19.5036 11.9699C19.5036 11.9699 19.5037 11.9699 19.5037 11.97L23.8378 16.4343L23.838 16.4345C24.2815 16.8905 25.0036 16.8905 25.4472 16.4345L25.4475 16.4341C25.8863 15.9814 25.8863 15.2506 25.4475 14.7979Z" fill="#092853" stroke="#092853" stroke-width="0.5"/>
<path d="M35.1582 30.4101V37.2125C35.1582 37.8463 35.6594 38.3731 36.2924 38.3731C36.9254 38.3731 37.4266 37.8463 37.4266 37.2125V30.4101C37.4266 29.7764 36.9254 29.2495 36.2924 29.2495C35.6594 29.2495 35.1582 29.7764 35.1582 30.4101ZM52.3564 37.0638V27.1216C52.3564 26.4878 51.8552 25.9609 51.2222 25.9609C50.5891 25.9609 50.088 26.4878 50.088 27.1216V37.0638C50.088 37.6975 50.5891 38.2244 51.2222 38.2244C51.8552 38.2244 52.3564 37.6975 52.3564 37.0638Z" fill="#092853" stroke="#092853" stroke-width="0.5"/>
<path d="M31.1876 27.0889L31.1876 27.0888C30.9499 26.3804 31.1734 25.5917 31.7509 25.1253L41.9649 16.8708C41.9649 16.8708 41.9649 16.8708 41.9649 16.8708C43.018 16.0196 44.5012 16.0196 45.5542 16.8708L31.1876 27.0889ZM31.1876 27.0889C31.4262 27.7987 32.0777 28.2816 32.8175 28.2816H54.7017C55.4415 28.2816 56.0929 27.7987 56.3315 27.0889L56.3316 27.0888C56.5693 26.3804 56.3458 25.5918 55.7684 25.1253C55.7683 25.1253 55.7683 25.1253 55.7683 25.1253L45.5542 16.8708L31.1876 27.0889ZM53.1417 25.9603L44.1485 18.6925L53.1417 25.9603ZM53.1417 25.9603H34.3775M53.1417 25.9603H34.3775M34.3775 25.9603L43.3707 18.6925C43.3707 18.6925 43.3708 18.6925 43.3708 18.6924C43.5998 18.5078 43.9193 18.5078 44.1483 18.6924L34.3775 25.9603Z" fill="#092853" stroke="#092853" stroke-width="0.5"/>
<path d="M15.0093 26.5136L15.0096 26.5137C15.6225 26.6673 15.9878 27.2976 15.8429 27.9134L15.8429 27.9135C15.6975 28.5311 15.0874 28.9226 14.4716 28.769L14.4715 28.769C11.9465 28.1384 8.79728 27.8854 4.55548 28.2585L4.55433 28.2591L4.50467 28.2632C4.18343 28.2896 3.92484 28.5692 3.92484 28.918V28.9182C3.92072 33.1385 3.92072 44.3366 3.92072 48.7466C3.92072 49.1187 4.21169 49.4072 4.5549 49.4072H4.60288H4.65145H4.7006H4.75033H4.80064H4.85152H4.90298H4.95501H5.0076H5.06077H5.1145H5.16879H5.22364H5.27905H5.33501H5.39153H5.4486H5.50621H5.56437H5.62308H5.68233H5.74211H5.80244H5.8633H5.92469H5.98661H6.04906H6.11203H6.17553H6.23955H6.30408H6.36914H6.4347H6.50078H6.56737H6.63447H6.70207H6.77017H6.83877H6.90787H6.97747H7.04756H7.11814H7.18921H7.26077H7.33281H7.40533H7.47833H7.55181H7.62576H7.70019H7.77509H7.85045H7.92629H8.00258H8.07934H8.15655H8.23422H8.31235H8.39093H8.46995H8.54943H8.62935H8.70971H8.79052H8.87176H8.95344H9.03555H9.11809H9.20106H9.28446H9.36829H9.45253H9.5372H9.62228H9.70778H9.79369H9.88002H9.96675H10.0539H10.1414H10.2294H10.3177H10.4064H10.4956H10.5851H10.675H10.7653H10.856H10.9471H11.0385H11.1304H11.2226H11.3152H11.4081H11.5014H11.5951H11.6892H11.7836H11.8784H11.9735H12.069H12.1649H12.2611H12.3576H12.4545H12.5517H12.6493H12.7472H12.8455H12.9441H13.043H13.1422H13.2418H13.3417H13.442H13.5425H13.6434H13.7446H13.8461H13.9479H14.05H14.1524H14.2552H14.3582H14.4616H14.5652H14.6691H14.7734H14.8779H14.9827H15.0878H15.1932H15.2988H15.4048H15.511H15.6175H15.7243H15.8313H15.9386H16.0462H16.154H16.2621H16.3705H16.4791H16.588H16.6971H16.8064H16.9161H17.0259H17.136H17.2464H17.357H17.4678H17.5789H17.6902H17.8017H17.9134H18.0254H18.1376H18.25H18.3626H18.4755H18.5886H18.7018H18.8153H18.929H19.0429H19.157H19.2713H19.3858H19.5005H19.6153H19.7304H19.8457H19.9611H20.0767H20.1926H20.3085H20.4247H20.541H20.6576H20.7742H20.8911H21.0081H21.1253H21.2426H21.3601H21.4778H21.5956H21.7135H21.8316H21.9499H22.0683H22.1868H22.3055H22.4243H22.5433H22.6624H22.7816H22.9009H23.0204H23.14H23.2597H23.3795H23.4995H23.6196H23.7397H23.86H23.9804H24.1009H24.2215H24.3422H24.4631H24.584H24.705H24.826H24.9472H25.0685H25.1898H25.3113H25.4328H25.5544H25.676H25.7978H25.9196H26.0415H26.1634H26.2854H26.4075H26.5296H26.6518H26.7741H26.8964H27.0187H27.1411H27.2636H27.3861H27.5086H27.6312H27.7538H27.8764H27.9991H28.1218H28.2445H28.3672H28.49H28.6128H28.7356H28.8585H28.9813H29.1042H29.227H29.3499H29.4728H29.5957H29.7185H29.8414H29.9643H30.0872H30.21H30.3329H30.4557H30.5785H30.7013H30.8241H30.9468H31.0696H31.1923H31.3149H31.4376H31.5602H31.6827H31.8053H31.9277H32.0502H32.1726H32.2949H32.4172H32.5395H32.6617H32.7838H32.9059H33.0279H33.1498H33.2717H33.3935H33.5153H33.6369H33.7585H33.88H34.0015H34.1228H34.2441H34.3653H34.4864H34.6074H34.7283H34.8491H34.9698H35.0904H35.2109H35.3313H35.4516H35.5718H35.6918H35.8118H35.9316H36.0513H36.1709H36.2904H36.4097H36.529H36.6481H36.767H36.8858H37.0045H37.123H37.2414H37.3597H37.4778H37.5958H37.7136H37.8312H37.9487H38.066H38.1832H38.3002H38.4171H38.5338H38.6503H38.7666H38.8828H38.9988H39.1146H39.2302H39.3457H39.4609H39.576H39.6909H39.8055H39.92H40.0343H40.1484H40.2623H40.376H40.4895H40.6028H40.7158H40.8287H40.9413H41.0537H41.1659H41.2779H41.3896H41.5012H41.6125H41.7235H41.8343H41.9449H42.0553H42.1654H42.2753H42.3849H42.4942H42.6034H42.7122H42.8209H42.9292H43.0373H43.1451H43.2527H43.36H43.4671H43.5738H43.6803H43.7866H43.8925H43.9982H44.1035H44.2086H44.3134H44.418H44.5222H44.6261H44.7298H44.8331H44.9361H45.0389H45.1413H45.2434H45.3452H45.4467H45.5479H45.6488H45.7494H45.8496H45.9495H46.0491H46.1483H46.2472H46.3458H46.4441H46.542H46.6396H46.7368H46.8337H46.9303H47.0265H47.1223H47.2178H47.3129H47.4077H47.5021H47.5962H47.6899H47.7832H47.8762H47.9687H48.0609H48.1528H48.2442H48.3353H48.426H48.5163H48.6062H48.6957H48.7849H48.8736H48.962H49.0499H49.1374H49.2246H49.3113H49.3976H49.4835H49.569H49.6541H49.7388H49.823H49.9069H49.9903H50.0732H50.1558H50.2379H50.3196H50.4008H50.4816H50.562H50.6419H50.7214H50.8004H50.879H50.9571H51.0348H51.112H51.1887H51.265H51.3409H51.4162H51.4911H51.5656H51.6395H51.713H51.786H51.8585H51.9306H52.0021H52.0732H52.1438H52.2139H52.2834H52.3526H52.4212H52.4893H52.5569H52.624H52.6905H52.7566H52.8222H52.8872H52.9518H53.0158H53.0793H53.1423H53.2047H53.2666H53.328H53.3889H53.4492H53.509H53.5682H53.6269H53.6851H53.7427H53.7998H53.8563H53.9123H53.9677H54.0225H54.0768H54.1306H54.1837H54.2363H54.2883H54.3398H54.3907H54.441H54.4907H54.5399H54.5884H54.6364C54.8022 49.4072 54.9626 49.3395 55.0828 49.2162C55.2021 49.0932 55.2706 48.9242 55.2706 48.7466V42.1057C55.2706 41.9334 55.2062 41.769 55.0928 41.6465C55.0867 41.6408 55.081 41.6347 55.0757 41.6285C52.5878 39.0005 50.5463 37.7717 48.6783 37.3052C46.8178 36.8405 45.113 37.1227 43.2811 37.5023C43.05 37.5502 42.8173 37.5996 42.5826 37.6494C40.0718 38.1823 37.3357 38.7629 33.9289 38.0849C28.9725 37.0987 25.949 35.1431 23.118 33.1988M15.0093 26.5136L17.528 29.819L17.6297 29.5906L17.5281 29.8191C19.4604 30.6788 21.0399 31.7672 22.6649 32.8869C22.8154 32.9907 22.9664 33.0947 23.118 33.1988M15.0093 26.5136C12.2642 25.8286 8.86398 25.5461 4.31538 25.9498C2.80879 26.0755 1.65659 27.3727 1.65647 28.9171C1.65234 33.1365 1.65234 44.3365 1.65234 48.7464V48.7466C1.65234 50.3869 2.94517 51.7284 4.5549 51.7284H4.60288H4.65145H4.7006H4.75033H4.80064H4.85152H4.90298H4.95501H5.0076H5.06077H5.1145H5.16879H5.22364H5.27905H5.33501H5.39153H5.4486H5.50621H5.56437H5.62308H5.68233H5.74211H5.80244H5.8633H5.92469H5.98661H6.04906H6.11203H6.17553H6.23955H6.30408H6.36914H6.4347H6.50078H6.56737H6.63447H6.70207H6.77017H6.83877H6.90787H6.97747H7.04756H7.11814H7.18921H7.26077H7.33281H7.40533H7.47833H7.55181H7.62576H7.70019H7.77509H7.85045H7.92629H8.00258H8.07934H8.15655H8.23422H8.31235H8.39093H8.46995H8.54943H8.62935H8.70971H8.79052H8.87176H8.95344H9.03555H9.11809H9.20106H9.28446H9.36829H9.45253H9.5372H9.62228H9.70778H9.79369H9.88002H9.96675H10.0539H10.1414H10.2294H10.3177H10.4064H10.4956H10.5851H10.675H10.7653H10.856H10.9471H11.0385H11.1304H11.2226H11.3152H11.4081H11.5014H11.5951H11.6892H11.7836H11.8784H11.9735H12.069H12.1649H12.2611H12.3576H12.4545H12.5517H12.6493H12.7472H12.8455H12.9441H13.043H13.1422H13.2418H13.3417H13.442H13.5425H13.6434H13.7446H13.8461H13.9479H14.05H14.1524H14.2552H14.3582H14.4616H14.5652H14.6691H14.7734H14.8779H14.9827H15.0878H15.1932H15.2988H15.4048H15.511H15.6175H15.7243H15.8313H15.9386H16.0462H16.154H16.2621H16.3705H16.4791H16.588H16.6971H16.8064H16.9161H17.0259H17.136H17.2464H17.357H17.4678H17.5789H17.6902H17.8017H17.9134H18.0254H18.1376H18.25H18.3626H18.4755H18.5886H18.7018H18.8153H18.929H19.0429H19.157H19.2713H19.3858H19.5005H19.6153H19.7304H19.8457H19.9611H20.0767H20.1926H20.3085H20.4247H20.541H20.6576H20.7742H20.8911H21.0081H21.1253H21.2426H21.3601H21.4778H21.5956H21.7135H21.8316H21.9499H22.0683H22.1868H22.3055H22.4243H22.5433H22.6624H22.7816H22.9009H23.0204H23.14H23.2597H23.3795H23.4995H23.6196H23.7397H23.86H23.9804H24.1009H24.2215H24.3422H24.4631H24.584H24.705H24.826H24.9472H25.0685H25.1898H25.3113H25.4328H25.5544H25.676H25.7978H25.9196H26.0415H26.1634H26.2854H26.4075H26.5296H26.6518H26.7741H26.8964H27.0187H27.1411H27.2636H27.3861H27.5086H27.6312H27.7538H27.8764H27.9991H28.1218H28.2445H28.3672H28.49H28.6128H28.7356H28.8585H28.9813H29.1042H29.227H29.3499H29.4728H29.5957H29.7185H29.8414H29.9643H30.0872H30.21H30.3329H30.4557H30.5785H30.7013H30.8241H30.9468H31.0696H31.1923H31.3149H31.4376H31.5602H31.6827H31.8053H31.9277H32.0502H32.1726H32.2949H32.4172H32.5395H32.6617H32.7838H32.9059H33.0279H33.1498H33.2717H33.3935H33.5153H33.6369H33.7585H33.88H34.0015H34.1228H34.2441H34.3653H34.4864H34.6074H34.7283H34.8491H34.9698H35.0904H35.2109H35.3313H35.4516H35.5718H35.6918H35.8118H35.9316H36.0513H36.1709H36.2904H36.4097H36.529H36.6481H36.767H36.8858H37.0045H37.123H37.2414H37.3597H37.4778H37.5958H37.7136H37.8312H37.9487H38.066H38.1832H38.3002H38.4171H38.5338H38.6503H38.7666H38.8828H38.9988H39.1146H39.2302H39.3457H39.4609H39.576H39.6909H39.8055H39.92H40.0343H40.1484H40.2623H40.376H40.4895H40.6028H40.7158H40.8287H40.9413H41.0537H41.1659H41.2779H41.3896H41.5012H41.6125H41.7235H41.8343H41.9449H42.0553H42.1654H42.2753H42.3849H42.4942H42.6034H42.7122H42.8209H42.9292H43.0373H43.1451H43.2527H43.36H43.4671H43.5738H43.6803H43.7866H43.8925H43.9982H44.1035H44.2086H44.3134H44.418H44.5222H44.6261H44.7298H44.8331H44.9361H45.0389H45.1413H45.2434H45.3452H45.4467H45.5479H45.6488H45.7494H45.8496H45.9495H46.0491H46.1483H46.2472H46.3458H46.4441H46.542H46.6396H46.7368H46.8337H46.9303H47.0265H47.1223H47.2178H47.3129H47.4077H47.5021H47.5962H47.6899H47.7832H47.8762H47.9687H48.0609H48.1528H48.2442H48.3353H48.426H48.5163H48.6062H48.6957H48.7849H48.8736H48.962H49.0499H49.1374H49.2246H49.3113H49.3976H49.4835H49.569H49.6541H49.7388H49.823H49.9069H49.9903H50.0732H50.1558H50.2379H50.3196H50.4008H50.4816H50.562H50.6419H50.7214H50.8004H50.879H50.9571H51.0348H51.112H51.1887H51.265H51.3409H51.4162H51.4911H51.5656H51.6395H51.713H51.786H51.8585H51.9306H52.0021H52.0732H52.1438H52.2139H52.2834H52.3526H52.4212H52.4893H52.5569H52.624H52.6905H52.7566H52.8222H52.8872H52.9518H53.0158H53.0793H53.1423H53.2047H53.2666H53.328H53.3889H53.4492H53.509H53.5682H53.6269H53.6851H53.7427H53.7998H53.8563H53.9123H53.9677H54.0225H54.0768H54.1306H54.1837H54.2363H54.2883H54.3398H54.3907H54.441H54.4907H54.5399H54.5884H54.6364C55.4083 51.7284 56.1476 51.4125 56.6914 50.8525C57.235 50.2927 57.539 49.5354 57.539 48.7466V42.1063C57.539 41.3272 57.2424 40.577 56.7096 40.0185C53.8666 37.0128 51.4503 35.608 49.2162 35.0498L49.2162 35.0498M15.0093 26.5136L49.2162 35.0498M23.118 33.1988L23.2596 32.9927L23.1181 33.1988C23.1181 33.1988 23.1181 33.1988 23.118 33.1988ZM49.2162 35.0498C46.9716 34.4896 44.9258 34.793 42.8307 35.2273M49.2162 35.0498L42.8307 35.2273M42.8307 35.2273C42.5667 35.2819 42.302 35.3388 42.0356 35.3959M42.8307 35.2273L42.0356 35.3959M42.0356 35.3959C39.7499 35.8863 37.3502 36.4011 34.3619 35.8066M42.0356 35.3959L34.3619 35.8066M34.3619 35.8066C29.7992 34.8989 27.0286 33.0891 24.382 31.2714L34.3619 35.8066ZM4.48888 28.2634H4.49046C4.4883 28.2635 4.48754 28.2634 4.48888 28.2634Z" fill="#092853" stroke="#092853" stroke-width="0.5"/>
</svg>
