<svg width="65" height="66" viewBox="0 0 65 66" fill="none" xmlns="http://www.w3.org/2000/svg">
<g filter="url(#filter0_d_752_3879)">
<path d="M32.5 0.294922C26.9621 0.294922 21.5486 1.9862 16.944 5.15488C12.3395 8.32356 8.75064 12.8273 6.63139 18.0967C4.51213 23.366 3.95764 29.1642 5.03802 34.7581C6.11841 40.352 8.78515 45.4903 12.701 49.5232C16.6169 53.5562 21.606 56.3027 27.0375 57.4154C32.4689 58.5281 38.0988 57.957 43.2151 55.7744C48.3315 53.5917 52.7045 49.8956 55.7812 45.1533C58.8578 40.4111 60.5 34.8357 60.5 29.1322C60.4904 21.4871 57.5374 14.1579 52.2884 8.75204C47.0395 3.34613 39.9231 0.304767 32.5 0.294922ZM52.66 15.0112L50.8536 18.081L43.6277 16.3694L42.9774 8.79727L45.3258 7.81122C48.2301 9.65987 50.728 12.1121 52.66 15.0112ZM19.8548 7.64378L22.5465 8.81587L21.8961 16.388L14.6703 18.0996L12.629 14.5275C14.5617 11.7541 17.0197 9.41243 19.8548 7.64378ZM11.5813 41.9694L13.189 39.1973L20.4148 40.909L21.0652 48.4811L18.4819 49.616C15.6903 47.5893 13.34 44.9849 11.5813 41.9694ZM46.789 49.4113L44.6213 48.4625L45.2716 40.8904L52.4974 39.1787L53.78 41.3927C52.0389 44.559 49.6541 47.3006 46.789 49.4299V49.4113ZM55.5503 37.2438L54.1774 34.9741L41.8936 37.9508L40.7916 50.9741L42.9413 51.923C39.735 53.5104 36.2272 54.347 32.6698 54.3727C29.1123 54.3985 25.5934 53.6127 22.3658 52.0718L24.8587 50.9741L23.7568 37.9508L11.4548 34.9741L9.70259 37.9508C8.51901 34.7624 7.98827 31.3564 8.1437 27.9466C8.29914 24.5369 9.13739 21.197 10.6058 18.1368L13.0445 22.3229L25.2742 19.3461L26.3761 6.32284L24.2265 5.374C29.6418 3.341 35.5873 3.38723 40.9723 5.50424L39.1658 6.32284L40.2677 19.3461L52.5877 22.2671L54.6652 18.7136C57.2573 24.5335 57.5615 31.1608 55.5142 37.2066L55.5503 37.2438Z" fill="#092853"/>
<path d="M22.2754 25.709L26.1773 38.0812H38.8225L42.7244 25.709L32.4999 18.0625L22.2754 25.709ZM36.1128 34.3602H28.887L26.6109 27.123L32.4999 22.6579L38.4793 27.123L36.1128 34.3602Z" fill="#092853"/>
</g>
<defs>
<filter id="filter0_d_752_3879" x="0.5" y="0.294922" width="64" height="65.6748" filterUnits="userSpaceOnUse" color-interpolation-filters="sRGB">
<feFlood flood-opacity="0" result="BackgroundImageFix"/>
<feColorMatrix in="SourceAlpha" type="matrix" values="0 0 0 0 0 0 0 0 0 0 0 0 0 0 0 0 0 0 127 0" result="hardAlpha"/>
<feOffset dy="4"/>
<feGaussianBlur stdDeviation="2"/>
<feComposite in2="hardAlpha" operator="out"/>
<feColorMatrix type="matrix" values="0 0 0 0 0 0 0 0 0 0 0 0 0 0 0 0 0 0 0.25 0"/>
<feBlend mode="normal" in2="BackgroundImageFix" result="effect1_dropShadow_752_3879"/>
<feBlend mode="normal" in="SourceGraphic" in2="effect1_dropShadow_752_3879" result="shape"/>
</filter>
</defs>
</svg>
