<svg width="59" height="60" viewBox="0 0 59 60" fill="none" xmlns="http://www.w3.org/2000/svg">
<path d="M4.57223 58.9705H53.7986C55.5875 58.9705 57.0428 57.4717 57.0428 55.6287V16.2142C57.0428 14.3726 55.5875 12.8738 53.7986 12.8738H43.3608L43.1726 12.1908C41.4068 5.77521 35.6571 1.2959 29.1887 1.2959C22.7203 1.2959 16.9707 5.77521 15.2062 12.1908L15.0186 12.8738H4.57223C2.78272 12.8738 1.32812 14.3726 1.32812 16.2142V55.6287C1.32812 57.4717 2.78272 58.9705 4.57223 58.9705ZM29.1887 3.20968C34.4106 3.20968 39.0961 6.55828 40.9847 11.4948H37.4282C35.7628 8.45845 32.5901 6.52766 29.1881 6.52766C25.7861 6.52766 22.6133 8.45981 20.948 11.4948H17.3941C19.282 6.55828 23.9675 3.20968 29.1887 3.20968ZM22.3471 12.8684C23.6108 10.179 26.2961 8.44212 29.1881 8.44212C32.0801 8.44212 34.7647 10.1804 36.0297 12.8684L36.0324 12.8738H22.3458L22.3471 12.8684ZM3.187 16.2142C3.187 15.4278 3.80794 14.7883 4.57289 14.7883H53.7993C54.5636 14.7883 55.1852 15.4271 55.1852 16.2142V55.6287C55.1852 56.4151 54.5643 57.0574 53.7993 57.0574H4.57223C3.80794 57.0574 3.18634 56.4158 3.18634 55.6287L3.187 16.2142Z" fill="#092853"/>
<path fill-rule="evenodd" clip-rule="evenodd" d="M35.4497 11.8435C34.0438 9.74663 31.6938 8.44175 29.1881 8.44175C26.6822 8.44175 24.3316 9.74578 22.9264 11.8435C22.7099 12.1668 22.5158 12.5089 22.3471 12.868L22.3458 12.8734H36.0324L36.0297 12.868C35.8607 12.5089 35.6664 12.1668 35.4497 11.8435ZM34.1868 11.8435C32.9459 10.3667 31.1176 9.47165 29.1881 9.47165C27.258 9.47165 25.4292 10.3664 24.189 11.8435H34.1868ZM14.2624 11.8435H4.57223C2.23044 11.8435 0.328125 13.8034 0.328125 16.2139V55.6283C0.328125 58.0398 2.23017 60 4.57223 60H53.7986C56.1399 60 58.0428 58.04 58.0428 55.6283V16.2139C58.0428 13.8033 56.1397 11.8435 53.7986 11.8435H44.1164C42.2077 5.02069 36.0828 0.265625 29.1887 0.265625C22.2948 0.265625 16.1698 5.02059 14.2624 11.8435ZM15.0186 12.8734L15.2062 12.1904C16.9707 5.77484 22.7203 1.29553 29.1887 1.29553C35.6571 1.29553 41.4068 5.77484 43.1726 12.1904L43.3608 12.8734H53.7986C55.5875 12.8734 57.0428 14.3722 57.0428 16.2139V55.6283C57.0428 57.4713 55.5875 58.9701 53.7986 58.9701H4.57223C2.78272 58.9701 1.32812 57.4713 1.32812 55.6283V16.2139C1.32812 14.3722 2.78272 12.8734 4.57223 12.8734H15.0186ZM4.187 16.2139L4.18634 55.6283C4.18634 55.8479 4.36147 56.0271 4.57223 56.0271H53.7993C54.0101 56.0271 54.1852 55.8479 54.1852 55.6283V16.2139C54.1852 15.9968 54.0126 15.8178 53.7993 15.8178H4.57289C4.35961 15.8178 4.187 15.9969 4.187 16.2139ZM39.4099 10.4645C37.3846 6.69943 33.4806 4.23921 29.1887 4.23921C24.8974 4.23921 20.9935 6.69946 18.9687 10.4645H20.384C22.2904 7.41254 25.6213 5.49739 29.1881 5.49739C32.7547 5.49739 36.0858 7.41119 37.9923 10.4645H39.4099ZM40.5395 10.4645C38.426 6.09793 34.0387 3.20931 29.1887 3.20931C24.3394 3.20931 19.9521 6.09793 17.8392 10.4645C17.6772 10.7993 17.5285 11.1428 17.3941 11.4944H20.948C22.6133 8.45944 25.7861 6.52729 29.1881 6.52729C32.5901 6.52729 35.7628 8.45808 37.4282 11.4944H40.9847C40.8502 11.1428 40.7015 10.7993 40.5395 10.4645ZM4.57289 14.7879C3.80794 14.7879 3.187 15.4274 3.187 16.2139L3.18634 55.6283C3.18634 56.4154 3.80794 57.057 4.57223 57.057H53.7993C54.5643 57.057 55.1852 56.4148 55.1852 55.6283V16.2139C55.1852 15.4267 54.5636 14.7879 53.7993 14.7879H4.57289Z" fill="#092853"/>
<path d="M20.2813 42.7937H22.4506V45.0272C22.4506 48.1778 24.939 50.7407 27.9975 50.7407H30.4707C33.5292 50.7407 36.0176 48.1772 36.0176 45.0272V42.7937H38.1869C41.2454 42.7937 43.7338 40.2302 43.7338 37.0816V34.5331C43.7338 31.3825 41.2448 28.821 38.1869 28.821H36.0176V26.5861C36.0176 23.4355 33.5285 20.874 30.4707 20.874H27.9975C24.9384 20.874 22.4506 23.4362 22.4506 26.5861V28.821H20.2813C17.2221 28.821 14.7344 31.3831 14.7344 34.5331V37.0816C14.7344 40.2309 17.2228 42.7937 20.2813 42.7937ZM16.5932 34.5331C16.5932 32.439 18.248 30.7355 20.2819 30.7355H24.3101V26.5854C24.3101 24.4914 25.9649 22.7878 27.9988 22.7878H30.472C32.5053 22.7878 34.16 24.4914 34.16 26.5854V30.7355H38.1889C40.2222 30.7355 41.8769 32.439 41.8769 34.5331V37.0816C41.8769 39.1757 40.2222 40.8792 38.1889 40.8792H34.1594V45.0279C34.1594 47.122 32.5046 48.8269 30.4714 48.8269H27.9982C25.9642 48.8269 24.3095 47.122 24.3095 45.0279V40.8792H20.2813C18.2473 40.8792 16.5926 39.1757 16.5926 37.0816L16.5932 34.5331Z" fill="#092853"/>
<path fill-rule="evenodd" clip-rule="evenodd" d="M24.3095 40.8798V45.0285C24.3095 47.1226 25.9642 48.8275 27.9982 48.8275H30.4714C32.5046 48.8275 34.1594 47.1226 34.1594 45.0285V40.8798H38.1889C40.2222 40.8798 41.8769 39.1763 41.8769 37.0822V34.5337C41.8769 32.4396 40.2222 30.7361 38.1889 30.7361H34.16V26.586C34.16 24.492 32.5053 22.7884 30.472 22.7884H27.9988C25.9649 22.7884 24.3101 24.492 24.3101 26.586V30.7361H20.2819C18.248 30.7361 16.5932 32.4396 16.5932 34.5337L16.5926 37.0822C16.5926 39.1763 18.2473 40.8798 20.2813 40.8798H24.3095ZM17.5926 37.0824C17.5927 38.6072 18.7994 39.8499 20.2813 39.8499H25.3095V45.0285C25.3095 46.5539 26.5166 47.7976 27.9982 47.7976H30.4714C31.9521 47.7976 33.1594 46.554 33.1594 45.0285V39.8499H38.1889C39.6701 39.8499 40.8769 38.6072 40.8769 37.0822V34.5337C40.8769 33.0087 39.6701 31.766 38.1889 31.766H33.16V26.586C33.16 25.061 31.9532 23.8183 30.472 23.8183H27.9988C26.5168 23.8183 25.3101 25.0611 25.3101 26.586V31.766H20.2819C18.7999 31.766 17.5932 33.0088 17.5932 34.5337L17.5926 37.0824ZM21.4506 43.8242H20.2813C16.6706 43.8242 13.7344 40.8004 13.7344 37.0822V34.5337C13.7344 30.8149 16.6699 27.7917 20.2813 27.7917H21.4506V26.5867C21.4506 22.8679 24.3861 19.8447 27.9975 19.8447H30.4707C34.0805 19.8447 37.0176 22.867 37.0176 26.5867V27.7917H38.1869C41.7967 27.7917 44.7338 30.8139 44.7338 34.5337V37.0822C44.7338 40.7996 41.7977 43.8242 38.1869 43.8242H37.0176V45.0278C37.0176 48.7464 34.0816 51.7712 30.4707 51.7712H27.9975C24.3867 51.7712 21.4506 48.7472 21.4506 45.0278V43.8242ZM20.2813 42.7943C17.2228 42.7943 14.7344 40.2315 14.7344 37.0822V34.5337C14.7344 31.3837 17.2221 28.8216 20.2813 28.8216H22.4506V26.5867C22.4506 23.4368 24.9384 20.8746 27.9975 20.8746H30.4707C33.5285 20.8746 36.0176 23.4361 36.0176 26.5867V28.8216H38.1869C41.2448 28.8216 43.7338 31.3831 43.7338 34.5337V37.0822C43.7338 40.2308 41.2454 42.7943 38.1869 42.7943H36.0176V45.0278C36.0176 48.1778 33.5292 50.7413 30.4707 50.7413H27.9975C24.939 50.7413 22.4506 48.1784 22.4506 45.0278V42.7943H20.2813Z" fill="#092853"/>
</svg>
